<svg id="Capa_1" data-name="Capa 1" xmlns="http://www.w3.org/2000/svg" viewBox="0 0 500 500"><defs><style>.cls-1{fill:#fff;opacity:0;}.cls-2{fill:#d6f4fc;}.cls-3{fill:#4d4e59;}.cls-4{fill:#e8f8fc;}.cls-5{fill:#7b7bec;}.cls-6{fill:#bdeffc;}.cls-7{fill:#42434d;}</style></defs><title>anuncios</title><rect class="cls-1" width="500" height="500"/><path class="cls-2" d="M387.17,257.85a17.11,17.11,0,0,1-18.27,22.91,336,336,0,0,0-144.27,12.59l-16.17,6c0,.07-.15-.38,25.06,68.08A12.11,12.11,0,0,1,226.38,383l-12.76,4.72a12.09,12.09,0,0,1-15.54-7.15l-25.18-68-6.38,2.36a24.2,24.2,0,0,1-31.08-14.29l-18.88-51a24.19,24.19,0,0,1,14.28-31.08L189,197a336.17,336.17,0,0,0,117.69-84.38,17.11,17.11,0,0,1,28.78,5.49l16.16,43.67A28,28,0,1,1,371,214.18Z" transform="translate(0 0)"/><path class="cls-3" d="M387.52,178.26A28,28,0,0,1,371,214.18l-19.41-52.44A28,28,0,0,1,387.52,178.26Z" transform="translate(0 0)"/><path class="cls-2" d="M416.34,167.82a5.37,5.37,0,0,1,3.17-6.9l15-5.58a5.37,5.37,0,1,1,3.73,10.08l-15,5.57A5.37,5.37,0,0,1,416.34,167.82Z" transform="translate(0 0)"/><path class="cls-2" d="M387.16,132.31a5.37,5.37,0,0,1-2.64-7.13L390,113.29a5.37,5.37,0,0,1,9.76,4.49l-5.47,11.89A5.37,5.37,0,0,1,387.16,132.31Z" transform="translate(0 0)"/><path class="cls-2" d="M431.85,226.35,420,220.88a5.37,5.37,0,0,1,4.48-9.76l11.9,5.47a5.37,5.37,0,1,1-4.48,9.76Z" transform="translate(0 0)"/><path class="cls-4" d="M335.43,118.07a17,17,0,0,1-3.54,17.49,394.07,394.07,0,0,1-131.45,91.85l-68.09,25.21a28.12,28.12,0,0,0-11.65,8.1l-4.14-11.17a24.19,24.19,0,0,1,14.28-31.08L189,197a336.17,336.17,0,0,0,117.69-84.38,17.11,17.11,0,0,1,28.78,5.49Z" transform="translate(0 0)"/><path class="cls-5" d="M189,197l35.67,96.39-58.11,21.51a24.2,24.2,0,0,1-31.08-14.29l-18.88-51a24.19,24.19,0,0,1,14.28-31.08Z" transform="translate(0 0)"/><path class="cls-5" d="M200.26,227.48c-73.95,27.37-69,25.43-71.49,26.75a8.68,8.68,0,0,1-12.21-4.68,24.19,24.19,0,0,1,14.28-31.08L189,197Z" transform="translate(0 0)"/><path class="cls-6" d="M215.24,317.75c-20.7,7.69-5.47,2-35.53,13.15l-6.81-18.4,35.56-13.16Z" transform="translate(0 0)"/><path class="cls-7" d="M380.74,208.06a27.63,27.63,0,0,1-9.74,6.12l-19.41-52.44A27.68,27.68,0,0,1,363,160.05C364,162.69,379.89,205.75,380.74,208.06Z" transform="translate(0 0)"/></svg>