<svg id="Capa_1" data-name="Capa 1" xmlns="http://www.w3.org/2000/svg" viewBox="0 0 500 500"><defs><style>.cls-1,.cls-2{fill:#fff;}.cls-1{opacity:0;}.cls-3{fill:#453d81;}.cls-4{fill:#2e2654;}.cls-5{fill:#5e54ac;}.cls-6{fill:#a4e9ff;}.cls-7{fill:#91bbff;}.cls-8{fill:#b7457d;}.cls-9{fill:#f2faff;}.cls-10{fill:#c8eafa;}.cls-11{fill:#ffe14d;}.cls-12{fill:#fb3;}.cls-13{fill:#e68a2e;}</style></defs><title>calculadora</title><rect class="cls-1" width="500" height="500"/><path class="cls-2" d="M379.4,177.09a14.69,14.69,0,0,0-11.14-9.48l-10.39-1.92a15.64,15.64,0,0,1-5.51,11.59l8.05,6.86a14.65,14.65,0,0,0,14.39,2.64l4.77-1.7a2.51,2.51,0,0,0,1.53-3.2h0Z" transform="translate(0 0)"/><path class="cls-2" d="M334.72,151.72a15.61,15.61,0,0,1,12.78-1l1.92-10.39a14.66,14.66,0,0,0-4.9-13.78l-3.87-3.3a2.52,2.52,0,0,0-3.54.27h0l-3.29,3.86a14.65,14.65,0,0,0-2.64,14.39Z" transform="translate(0 0)"/><path class="cls-2" d="M350.32,152a15.6,15.6,0,0,1,7.29,10.56l10-3.55a14.66,14.66,0,0,0,9.48-11.13l.91-5a2.5,2.5,0,0,0-2-2.92l-5-.92A14.71,14.71,0,0,0,357.17,144Z" transform="translate(0 0)"/><path class="cls-2" d="M305.1,153.7a14.69,14.69,0,0,0,11.15,9.47l10.39,1.91a15.6,15.6,0,0,1,5.51-11.58l-8.06-6.87A14.66,14.66,0,0,0,309.71,144l-4.77,1.7a2.52,2.52,0,0,0-1.53,3.21h0Z" transform="translate(0 0)"/><path class="cls-2" d="M334.18,178.76a15.63,15.63,0,0,1-7.29-10.56l-9.95,3.54a14.7,14.7,0,0,0-9.49,11.14c-.48,2.62-.91,5-.91,5a2.51,2.51,0,0,0,2,2.92l5,.91a14.66,14.66,0,0,0,13.78-4.9Z" transform="translate(0 0)"/><path class="cls-2" d="M349.79,179.07a15.6,15.6,0,0,1-12.79,1l-1.92,10.39a14.66,14.66,0,0,0,4.9,13.78l3.87,3.3a2.51,2.51,0,0,0,3.54-.27h0l3.3-3.86A14.68,14.68,0,0,0,353.33,189Z" transform="translate(0 0)"/><path class="cls-2" d="M333.92,173.49a11.79,11.79,0,1,0-2.09-2.94L323,176.86l2.11,2.94,8.87-6.32Zm.37-9.55a8.14,8.14,0,1,1,6.69,9.37h0A8.15,8.15,0,0,1,334.29,163.94Z" transform="translate(0 0)"/><path class="cls-3" d="M365.34,437.49H148.59a37.3,37.3,0,0,1-37.26-37.25V127.94a37.3,37.3,0,0,1,37.26-37.25H365.34a37.3,37.3,0,0,1,37.26,37.25v272.3A37.3,37.3,0,0,1,365.34,437.49Z" transform="translate(0 0)"/><path class="cls-4" d="M365.34,90.69H257v346.8H365.34a37.3,37.3,0,0,0,37.26-37.25V127.94A37.3,37.3,0,0,0,365.34,90.69Z" transform="translate(0 0)"/><path class="cls-5" d="M148.59,111a17,17,0,0,0-16.94,16.93v272.3a17,17,0,0,0,16.94,16.93H365.34a17,17,0,0,0,16.94-16.93V127.94A17,17,0,0,0,365.34,111Z" transform="translate(0 0)"/><path class="cls-3" d="M365.34,111H257V417.17H365.34a17,17,0,0,0,16.94-16.93V127.94A17,17,0,0,0,365.34,111Z" transform="translate(0 0)"/><path class="cls-6" d="M209.55,237.67H257v49.68H209.55Z" transform="translate(0 0)"/><path class="cls-6" d="M162.14,237.67h47.41v49.68H162.14Z" transform="translate(0 0)"/><path class="cls-6" d="M162.14,287.35h47.41V337H162.14Z" transform="translate(0 0)"/><path class="cls-7" d="M257,287.35h47.41V337H257Z" transform="translate(0 0)"/><path class="cls-6" d="M209.55,287.35H257V337H209.55Z" transform="translate(0 0)"/><path class="cls-7" d="M257,237.67h47.41v49.68H257Z" transform="translate(0 0)"/><path class="cls-7" d="M304.38,237.67H351.8v49.68H304.38Z" transform="translate(0 0)"/><path class="cls-6" d="M162.14,337h47.41v49.67H162.14Z" transform="translate(0 0)"/><path class="cls-8" d="M304.38,337v49.67H351.8V287.35H304.38Z" transform="translate(0 0)"/><path class="cls-7" d="M257,337h47.41v49.67H257Z" transform="translate(0 0)"/><path class="cls-6" d="M209.55,337H257v49.67H209.55Z" transform="translate(0 0)"/><path class="cls-9" d="M351.8,227.51H162.14A10.16,10.16,0,0,0,152,237.67v149a10.16,10.16,0,0,0,10.16,10.16H351.8A10.16,10.16,0,0,0,362,386.69v-149A10.16,10.16,0,0,0,351.8,227.51Zm-10.17,49.68H314.54V247.83h27.09ZM172.3,297.51h27.09v29.35H172.3Zm47.41,0h27.1v29.35h-27.1Zm0-20.32V247.83h27.1v29.36Zm27.1,70v29.35h-27.1V347.18Zm20.32,0h27.09v29.35H267.13Zm27.09-20.32H267.13V297.51h27.09Zm-27.09-49.67V247.83h27.09v29.36Zm-67.74-29.36v29.36H172.3V247.83ZM172.3,347.18h27.09v29.35H172.3Zm142.24,29.35v-79h27.09v79Z" transform="translate(0 0)"/><path class="cls-10" d="M351.8,396.85A10.16,10.16,0,0,0,362,386.69v-149a10.16,10.16,0,0,0-10.16-10.16H257V396.85Zm-37.26-149h27.09v29.36H314.54Zm0,49.68h27.09v79H314.54Zm-47.41-49.68h27.09v29.36H267.13Zm0,49.68h27.09v29.35H267.13Zm27.09,49.67v29.35H267.13V347.18Z" transform="translate(0 0)"/><path class="cls-9" d="M351.8,207.19H162.14A10.16,10.16,0,0,1,152,197V141.49a10.16,10.16,0,0,1,10.16-10.16H351.8A10.16,10.16,0,0,1,362,141.49V197A10.16,10.16,0,0,1,351.8,207.19Z" transform="translate(0 0)"/><path class="cls-10" d="M362,197V141.49a10.16,10.16,0,0,0-10.16-10.16H257v75.86H351.8A10.16,10.16,0,0,0,362,197Z" transform="translate(0 0)"/><path class="cls-6" d="M172.3,151.65H341.63v35.22H172.3Z" transform="translate(0 0)"/><path class="cls-7" d="M257,151.65h84.66v35.22H257Z" transform="translate(0 0)"/><path class="cls-11" d="M396.07,475.22a78.37,78.37,0,1,1,78.37-78.37,78.36,78.36,0,0,1-78.37,78.37" transform="translate(0 0)"/><path class="cls-12" d="M396.07,475.22a78.37,78.37,0,1,0,0-156.73V475.22" transform="translate(0 0)"/><path class="cls-12" d="M396.07,456.54a59.69,59.69,0,1,1,59.69-59.69A59.76,59.76,0,0,1,396.07,456.54Z" transform="translate(0 0)"/><path class="cls-13" d="M455.76,396.85a59.76,59.76,0,0,0-59.69-59.69V456.54A59.75,59.75,0,0,0,455.76,396.85Z" transform="translate(0 0)"/><g id="Cent"><path class="cls-11" d="M400.66,392.59V374.43c5.29,1.3,9.19,4.7,9.19,8.6a4.59,4.59,0,0,0,9.18,0c0-8.87-7.9-16.29-18.37-18v-5a4.59,4.59,0,0,0-9.18,0v5c-10.47,1.7-18.37,9.12-18.37,18s7.9,16.29,18.37,18v18.15c-5.28-1.29-9.18-4.69-9.18-8.6a4.6,4.6,0,0,0-9.19,0c0,8.87,7.9,16.29,18.37,18v5a4.59,4.59,0,0,0,9.18,0v-5c10.47-1.71,18.37-9.13,18.37-18s-7.9-16.29-18.37-18ZM382.3,383c0-3.9,3.9-7.3,9.18-8.6v17.2C386.2,390.34,382.3,386.94,382.3,383Zm18.36,36.15V402c5.29,1.3,9.19,4.7,9.19,8.6s-3.9,7.31-9.19,8.6Z" transform="translate(0 0)"/></g><path class="cls-12" d="M400.66,433.59v-5c10.47-1.71,18.37-9.13,18.37-18s-7.9-16.29-18.37-18V374.43c5.29,1.3,9.19,4.7,9.19,8.6a4.59,4.59,0,0,0,9.18,0c0-8.87-7.9-16.29-18.37-18v-5a4.59,4.59,0,0,0-4.59-4.59v82.7A4.59,4.59,0,0,0,400.66,433.59Zm0-31.61c5.29,1.3,9.19,4.7,9.19,8.6s-3.9,7.31-9.19,8.6Z" transform="translate(0 0)"/></svg>