<svg id="Capa_1" data-name="Capa 1" xmlns="http://www.w3.org/2000/svg" viewBox="0 0 500 500"><defs><style>.cls-1,.cls-4{fill:#fff;}.cls-1{opacity:0;}.cls-2{fill:#e6e7e8;}.cls-3{fill:#6dc9f7;}.cls-5{fill:#ffd7e5;}.cls-6{fill:#0089ef;}.cls-7{fill:#6262ca;}.cls-8{fill:#0da095;}.cls-9{fill:#3a2c60;}</style></defs><title>chatbot</title><rect class="cls-1" width="500" height="500"/><path class="cls-2" d="M320,317.31V313a44,44,0,0,0-43.9-43.9h-37a25.73,25.73,0,0,0-22.53-22.53V224.88a13.5,13.5,0,1,0-5.95,0v21.66a25.73,25.73,0,0,0-22.53,22.53H151a44,44,0,0,0-43.9,43.9v4.34a25.68,25.68,0,0,0,0,51v6a44,44,0,0,0,43.9,43.9h125a44,44,0,0,0,43.9-43.9v-6a25.68,25.68,0,0,0,0-51Z" transform="translate(0 0)"/><path class="cls-2" d="M414.6,120.76H292a18.74,18.74,0,0,0-18.72,18.72v73.39A18.75,18.75,0,0,0,292,231.6h5.84v29.09a3,3,0,0,0,1.75,2.72,3.11,3.11,0,0,0,1.22.26,3,3,0,0,0,2-.75l35.31-31.32h76.5a18.75,18.75,0,0,0,18.73-18.73V139.48a18.74,18.74,0,0,0-18.72-18.72Z" transform="translate(0 0)"/><path class="cls-3" d="M264.17,403.37h-125a41.05,41.05,0,0,1-40.93-40.93V301.06a41,41,0,0,1,40.93-40.92H264.17a41,41,0,0,1,40.92,40.92v61.39A41,41,0,0,1,264.17,403.37Z" transform="translate(0 0)"/><path class="cls-4" d="M264.17,260.14h-125a41,41,0,0,0-40.93,40.92V310a41,41,0,0,1,40.93-40.92H264.17A41,41,0,0,1,305.09,310v-8.93A41,41,0,0,0,264.17,260.14Z" transform="translate(0 0)"/><path class="cls-5" d="M139.12,382.91a20.49,20.49,0,0,1-20.46-20.46V301.06a20.48,20.48,0,0,1,20.46-20.46H264.17a20.49,20.49,0,0,1,20.46,20.46v61.39a20.49,20.49,0,0,1-20.46,20.46Z" transform="translate(0 0)"/><path class="cls-6" d="M98.19,308.19v45.43a22.72,22.72,0,0,1,0-45.43Z" transform="translate(0 0)"/><path class="cls-6" d="M327.81,330.91a22.7,22.7,0,0,1-22.72,22.71V308.19A22.72,22.72,0,0,1,327.81,330.91Z" transform="translate(0 0)"/><path class="cls-6" d="M201.64,237.42a22.71,22.71,0,0,0-22.71,22.72h45.43A22.72,22.72,0,0,0,201.64,237.42Z" transform="translate(0 0)"/><circle class="cls-7" cx="201.64" cy="199.84" r="10.52"/><path class="cls-8" d="M280.08,216.71A15.75,15.75,0,0,1,264.33,201V127.57a15.75,15.75,0,0,1,15.75-15.75H402.69a15.75,15.75,0,0,1,15.75,15.75V201a15.75,15.75,0,0,1-15.75,15.75H325.05l-36.16,32.07V216.71Z" transform="translate(0 0)"/><path class="cls-9" d="M160.18,307.74A12.79,12.79,0,1,0,173,320.53a12.82,12.82,0,0,0-12.79-12.79Z" transform="translate(0 0)"/><circle class="cls-9" cx="243.11" cy="320.53" r="12.79"/><path class="cls-9" d="M212.25,348a14,14,0,0,1-10.61,4.83A13.54,13.54,0,0,1,191.08,348a3,3,0,0,0-4.82,3.5,19.5,19.5,0,0,0,15.38,7.23A20,20,0,0,0,217,351.58a3,3,0,0,0-4.72-3.62Z" transform="translate(0 0)"/><path class="cls-9" d="M308.07,305.4v-4.34a44,44,0,0,0-43.9-43.9h-37a25.73,25.73,0,0,0-22.53-22.53V213a13.5,13.5,0,1,0-6,0v21.66a25.73,25.73,0,0,0-22.53,22.53h-37a44,44,0,0,0-43.9,43.9v4.34a25.68,25.68,0,0,0,0,51v6a44,44,0,0,0,43.9,43.9H264.17a44,44,0,0,0,43.9-43.9v-6a25.68,25.68,0,0,0,0-51Zm-114-105.56a7.54,7.54,0,1,1,7.53,7.53A7.54,7.54,0,0,1,194.11,199.84Zm7.53,40.56a19.76,19.76,0,0,1,19.51,16.76h-39a19.77,19.77,0,0,1,19.51-16.76ZM78.46,330.91A19.76,19.76,0,0,1,95.22,311.4v39A19.76,19.76,0,0,1,78.46,330.91Zm223.65,31.54a38,38,0,0,1-37.94,37.95h-125a38,38,0,0,1-37.95-37.95V301.06a38,38,0,0,1,38-37.95H264.17a38,38,0,0,1,37.94,37.95v61.39Zm6-12v-39a19.74,19.74,0,0,1,0,39Z" transform="translate(0 0)"/><path class="cls-9" d="M402.69,108.85H280.08a18.74,18.74,0,0,0-18.72,18.72V201a18.75,18.75,0,0,0,18.72,18.73h5.84v29.09a3,3,0,0,0,3,3,3,3,0,0,0,2-.75l35.31-31.32h76.5A18.75,18.75,0,0,0,421.41,201V185.7a3,3,0,0,0-6,0V201a12.78,12.78,0,0,1-12.77,12.77H325.06a3,3,0,0,0-2,.75l-31.21,27.68V216.71a3,3,0,0,0-3-3h-8.82A12.78,12.78,0,0,1,267.32,201V127.57a12.78,12.78,0,0,1,12.76-12.77H402.69a12.79,12.79,0,0,1,12.77,12.77v15a3,3,0,0,0,6,0v-15a18.76,18.76,0,0,0-18.73-18.72Z" transform="translate(0 0)"/><path class="cls-9" d="M418.44,150.39a3,3,0,0,0-3,3v20.81a3,3,0,1,0,6,0V153.37A3,3,0,0,0,418.44,150.39Z" transform="translate(0 0)"/><path class="cls-4" d="M379.4,177.09a14.69,14.69,0,0,0-11.14-9.48l-10.39-1.92a15.64,15.64,0,0,1-5.51,11.59l8.05,6.86a14.65,14.65,0,0,0,14.39,2.64l4.77-1.7a2.51,2.51,0,0,0,1.53-3.2h0Z" transform="translate(0 0)"/><path class="cls-4" d="M334.72,151.72a15.61,15.61,0,0,1,12.78-1l1.92-10.39a14.66,14.66,0,0,0-4.9-13.78l-3.87-3.3a2.52,2.52,0,0,0-3.54.27h0l-3.29,3.86a14.65,14.65,0,0,0-2.64,14.39Z" transform="translate(0 0)"/><path class="cls-4" d="M350.32,152a15.6,15.6,0,0,1,7.29,10.56l10-3.55a14.66,14.66,0,0,0,9.48-11.13l.91-5a2.5,2.5,0,0,0-2-2.92l-5-.92A14.71,14.71,0,0,0,357.17,144Z" transform="translate(0 0)"/><path class="cls-4" d="M305.1,153.7a14.69,14.69,0,0,0,11.15,9.47l10.39,1.91a15.6,15.6,0,0,1,5.51-11.58l-8.06-6.87A14.66,14.66,0,0,0,309.71,144l-4.77,1.7a2.52,2.52,0,0,0-1.53,3.21h0Z" transform="translate(0 0)"/><path class="cls-4" d="M334.18,178.76a15.63,15.63,0,0,1-7.29-10.56l-9.95,3.54a14.7,14.7,0,0,0-9.49,11.14c-.48,2.62-.91,5-.91,5a2.51,2.51,0,0,0,2,2.92l5,.91a14.66,14.66,0,0,0,13.78-4.9Z" transform="translate(0 0)"/><path class="cls-4" d="M349.79,179.07a15.6,15.6,0,0,1-12.79,1l-1.92,10.39a14.66,14.66,0,0,0,4.9,13.78l3.87,3.3a2.51,2.51,0,0,0,3.54-.27h0l3.3-3.86A14.68,14.68,0,0,0,353.33,189Z" transform="translate(0 0)"/><path class="cls-4" d="M333.92,173.49a11.79,11.79,0,1,0-2.09-2.94L323,176.86l2.11,2.94,8.87-6.32Zm.37-9.55a8.14,8.14,0,1,1,6.69,9.37h0A8.15,8.15,0,0,1,334.29,163.94Z" transform="translate(0 0)"/></svg>