<svg id="Capa_1" data-name="Capa 1" xmlns="http://www.w3.org/2000/svg" viewBox="0 0 509.59 512"><defs><style>.cls-1{fill:#fff;}</style></defs><title>contacto</title><path id="Shape" class="cls-1" d="M20.94,368.06A25.33,25.33,0,0,0,2.65,396L17.16,504.63A8.53,8.53,0,0,0,25.6,512H486.4a8.54,8.54,0,0,0,8.46-7.41l14.5-108.68a25.6,25.6,0,0,0-25.89-29l20.59-200.25a42.32,42.32,0,0,0-26.7-44.05l.86-3.41A33.88,33.88,0,0,0,447.69,77.1l3.14-7.85a25.64,25.64,0,0,0-25.37-35.12A25.46,25.46,0,0,0,401.49,0h-291a25.46,25.46,0,0,0-24,34.13A25.61,25.61,0,0,0,61.17,69.24l3.14,7.85a33.84,33.84,0,0,0-30.23,43.29A42.6,42.6,0,0,0,.24,166.64ZM490.4,386.92a8.37,8.37,0,0,1,2,6.74l-3.27,24.47H119.47a8.54,8.54,0,1,0,0,17.07H486.89l-8,59.73H33.08l-8-59.73H76.8a8.54,8.54,0,0,0,0-17.07h-54l-3.27-24.47A8.52,8.52,0,0,1,28,384c487.12,0,458.38-1.71,462.38,2.92ZM69.85,197a8.55,8.55,0,0,1,8.54-9.27H221.87a8.53,8.53,0,0,1,8.53,8.54V353.6c-5.48-6.19-7.55-7.22-39.91-24.35a10.07,10.07,0,0,1-5.47-6.93L184,312.78a52,52,0,0,0,11.87-23.35,13.77,13.77,0,0,0,4.27-11.57c-1.71-15-1.09-17.06-6.45-22l-2.08-17.74c-.71-3.41-8-33.28-47.34-33.28-28.39,0-42.07,16.82-41.51,36.15l1.82,16.26a13.19,13.19,0,0,0-2.94,9.52l1.46,13a15.22,15.22,0,0,0,6.47,10.66,67.27,67.27,0,0,0,17.37,23.69L128,324.22a5.59,5.59,0,0,1-3.34,5.55l-24.61,15.58a27.73,27.73,0,0,0-14.48,21.58c-1.46,0,.17,13.32-15.72-169.93ZM145,322.32c-1.49-13.25-1.05-16-4.36-18.86a52,52,0,0,1-15.2-19.3c-2-4.94-2-4.82-5.5-7.3l-1.12-10.07c4.35-5.06,3.59-3.78,1-27a17.36,17.36,0,0,1,4.54-11.74,27.19,27.19,0,0,1,19.9-6.2c25.27,0,29.95,16.39,30.5,18.91,2.83,25.28,1.59,22.29,7.08,27.4l1.1,9.85a10.13,10.13,0,0,0-3.78,7.84,35,35,0,0,1-8.36,16.06c-5.59,6.08-4.64,5-2.71,22.29a26.92,26.92,0,0,0,14.51,20.12c33.28,17.58,33.62,17.83,36.69,22.59H102.84a10.93,10.93,0,0,1,5.41-6.59c.66-.35,6.67-4.78,25.25-15.94A22.68,22.68,0,0,0,145,322.32ZM102.62,28.72a8.53,8.53,0,0,1,7.89-11.65h291a8.37,8.37,0,0,1,7,3.75c3,4.48.69,8.28-1.31,13.31H104.78ZM84.94,51.2H427.06A8.54,8.54,0,0,1,435,62.9l-5.57,13.9H82.58L77,62.9a8.54,8.54,0,0,1,7.93-11.7Zm-18,42.67H445.1a17.06,17.06,0,0,1,16.55,21.22l-1.09,4.38H51.44l-1.09-4.36A17.05,17.05,0,0,1,66.9,93.87ZM42.67,136.53h419A25.6,25.6,0,0,1,487.1,164.9l-20.79,202H247.47V196.27a25.6,25.6,0,0,0-25.6-25.6H78.35a25.59,25.59,0,0,0-25.5,27.82L67.49,366.93H38L17.22,164.86a25.6,25.6,0,0,1,25.45-28.33Z" transform="translate(0 0)"/><path class="cls-1" d="M290.13,230.4H445.28A17.1,17.1,0,0,0,462,216.68l5.12-25.6a17.06,17.06,0,0,0-16.74-20.41H290.13a17.06,17.06,0,0,0-17.06,17.06v25.6A17.06,17.06,0,0,0,290.13,230.4Zm0-42.67H450.39l-5.12,25.6H290.13Z" transform="translate(0 0)"/><path class="cls-1" d="M281.6,273.07h17.07a8.54,8.54,0,0,0,0-17.07H281.6a8.54,8.54,0,0,0,0,17.07Z" transform="translate(0 0)"/><path class="cls-1" d="M443.73,256H332.8a8.54,8.54,0,0,0,0,17.07H443.73a8.54,8.54,0,1,0,0-17.07Z" transform="translate(0 0)"/><path class="cls-1" d="M281.6,315.73h85.33a8.53,8.53,0,1,0,0-17.06H281.6a8.53,8.53,0,1,0,0,17.06Z" transform="translate(0 0)"/><path class="cls-1" d="M435.2,298.67H401.07a8.53,8.53,0,1,0,0,17.06H435.2a8.53,8.53,0,1,0,0-17.06Z" transform="translate(0 0)"/></svg>