<svg id="Capa_1" data-name="Capa 1" xmlns="http://www.w3.org/2000/svg" viewBox="0 0 480 480"><defs><style>.cls-1{fill:#fff;}</style></defs><title>empresa</title><path class="cls-1" d="M440,0H152a40.05,40.05,0,0,0-40,40v80h16V40a24,24,0,0,1,24-24H368V88a8,8,0,0,0,13.66,5.66L400,75.31l18.34,18.35A8,8,0,0,0,432,88V16h8a24,24,0,0,1,24,24V440a24,24,0,0,1-24,24H152a24,24,0,0,1-24-24V424H112v16a40.05,40.05,0,0,0,40,40H440a40.05,40.05,0,0,0,40-40V40A40.05,40.05,0,0,0,440,0ZM416,68.69,405.66,58.34a8,8,0,0,0-11.32,0L384,68.69V16h32Z"/><path class="cls-1" d="M160,48h32V64H160Z"/><path class="cls-1" d="M208,48h80V64H208Z"/><path class="cls-1" d="M160,80H288V96H160Z"/><path class="cls-1" d="M272,272A136,136,0,1,0,136,408,136,136,0,0,0,272,272ZM136,392a119.35,119.35,0,0,1-78.89-29.8l17-17A95.84,95.84,0,0,0,231.59,280h24A120,120,0,0,1,136,392Zm0-200a80,80,0,1,1-80,80A80,80,0,0,1,136,192Zm119.59,72h-24A96,96,0,0,0,144,176.41v-24A120,120,0,0,1,255.59,264ZM128,152.41v24A95.84,95.84,0,0,0,62.76,333.93l-17,17A119.7,119.7,0,0,1,128,152.41Z"/><path class="cls-1" d="M274.34,146.34l-24,24,11.32,11.32L283.31,160H328V144H280A8,8,0,0,0,274.34,146.34Z"/><path class="cls-1" d="M392,152a24,24,0,1,0-24,24A24,24,0,0,0,392,152Zm-32,0a8,8,0,1,1,8,8A8,8,0,0,1,360,152Z"/><path class="cls-1" d="M237.66,386.34l-11.32,11.32,24,24A8,8,0,0,0,256,424h48V408H259.31Z"/><path class="cls-1" d="M320,408h48v16H320Z"/><path class="cls-1" d="M320,376h48v16H320Z"/><path class="cls-1" d="M320,224H432v16H320Z"/><path class="cls-1" d="M320,256H432v16H320Z"/><path class="cls-1" d="M320,288H432v16H320Z"/></svg>