<svg id="Capa_1" data-name="Capa 1" xmlns="http://www.w3.org/2000/svg" viewBox="0 0 448.02 512"><defs><style>.cls-1{fill:#fff;}</style></defs><title>fingerprint</title><g id="_1_5" data-name="1,5"><path class="cls-1" d="M436.91,102.74a15.85,15.85,0,0,1-10.78-4.18C379.05,55.64,318.63,32,256,32S133,55.64,85.87,98.58A16,16,0,1,1,64.3,74.92C117.31,26.6,185.39,0,256,0S394.69,26.6,447.7,74.92a16,16,0,0,1-10.79,27.82Z" transform="translate(-31.99 0)"/><path class="cls-1" d="M464,207.3a15.94,15.94,0,0,1-13.29-7.09C406.29,134.08,333.5,94.59,256,94.59S105.71,134.08,61.29,200.21a16,16,0,1,1-26.58-17.83C85.08,107.39,167.81,62.61,256,62.61S426.92,107.39,477.29,182.4A16,16,0,0,1,464,207.3Z" transform="translate(-31.99 0)"/><path class="cls-1" d="M205.46,512a16,16,0,0,1-11.37-4.74c-3.5-3.52-85.48-87.21-85.48-167.78,0-83.63,66.11-151.66,147.39-151.66s147.39,68,147.39,151.66a16,16,0,0,1-32,0c0-66-51.75-119.66-115.39-119.66S140.61,273.49,140.61,339.48c0,67.56,75.45,144.49,76.22,145.26A16,16,0,0,1,205.46,512Z" transform="translate(-31.99 0)"/><path class="cls-1" d="M306.54,512c-38.49,0-127.7-73.22-136.34-154.75-3-28.82,6.12-58.31,24.51-78.87,16-17.88,37.61-27.8,60.84-27.93H256a85.18,85.18,0,0,1,60.37,25.09,89.44,89.44,0,0,1,26.39,64v10.43c0,25.71,20,46.61,44.63,46.61S432,375.64,432,349.93v-3.65c0-99.62-72.17-182.5-164.31-188.65-48-3.26-94.12,13.34-129.68,46.57C101.14,238.72,80,288,80,339.5a186.47,186.47,0,0,0,40.36,116.12,16,16,0,1,1-25,20A218.67,218.67,0,0,1,48,339.48c0-60.29,24.87-118.13,68.2-158.66,42.09-39.38,96.68-59,153.67-55.15C378.73,133,464,229.85,464,346.26v3.65c0,43.35-34.39,78.61-76.65,78.61s-76.63-35.26-76.63-78.61V339.48a57.68,57.68,0,0,0-16.94-41.26A53.28,53.28,0,0,0,256,282.43h-.3c-18,.09-30.16,9.45-37.16,17.28-12.48,13.93-18.67,34.2-16.55,54.17C209.07,420.39,285.5,480,306.54,480a16,16,0,1,1,0,32Z" transform="translate(-31.99 0)"/><path class="cls-1" d="M365.91,480.7c-57.26,0-127.17-70-127.17-151.65a16,16,0,1,1,32,0c0,63.31,53.23,119.65,95.17,119.65a16,16,0,0,1,0,32Z" transform="translate(-31.99 0)"/></g></svg>