<svg id="Layer_1" data-name="Layer 1" xmlns="http://www.w3.org/2000/svg" viewBox="0 0 493.22 272"><defs><style>.cls-1{fill:#fff;}</style></defs><title>flores</title><path class="cls-1" d="M146.05,161.32c-9.85-6.33-23.31-8.13-35.07-6.76,1.33,9.28.86,21.4-3.49,29.6a25.09,25.09,0,0,1-3.56,14.94c19.53-2.78,37.84-17.63,43.71-32.82a4,4,0,0,0-1.59-5Z" transform="translate(-16.07 -120)"/><path class="cls-1" d="M59.82,174.67a25.34,25.34,0,0,1,15.25-12.81c-16.26-10.18-41.91-10.33-57.09-.54a4.1,4.1,0,0,0-1.62,5c4.28,11.09,14.32,20.48,24.64,26.23C45.43,185.5,52.15,177.94,59.82,174.67Z" transform="translate(-16.07 -120)"/><path class="cls-1" d="M86.66,161.18a25.17,25.17,0,0,1,16.19,10.18c2.8-18.93-5.47-40.3-17.88-50.44a4.15,4.15,0,0,0-5.22,0c-8.17,6.65-13.6,17.12-16.3,27.2,7.66,2,17.59,6.15,23.21,13.06Z" transform="translate(-16.07 -120)"/><path class="cls-1" d="M120.19,203.05c-7.13,3-16.8,5.4-24.47,4.39a25.19,25.19,0,0,1-19.93,3c9.25,19.86,31.66,32.38,45.4,32.38a4.13,4.13,0,0,0,4-3.06c3.06-11.77.32-25.69-5-36.7Z" transform="translate(-16.07 -120)"/><path class="cls-1" d="M65.5,204.82a25.1,25.1,0,0,1-8.38-18.71c-15.61,14-21.77,37.77-17.56,53.6a4.09,4.09,0,0,0,4,3.06c8,0,21.73-4.89,33.17-15.68-5-5.94-10.15-14.5-11.23-22.27Z" transform="translate(-16.07 -120)"/><path class="cls-1" d="M80.18,170.93a16.08,16.08,0,1,0,11.37,27.45L80.18,187Z" transform="translate(-16.07 -120)"/><path class="cls-1" d="M94.46,170.49a16,16,0,0,0-11.37-4.71v16.08Z" transform="translate(-16.07 -120)"/><path class="cls-1" d="M95.22,174.49,83.85,185.86l11.37,11.36A16.1,16.1,0,0,0,95.22,174.49Z" transform="translate(-16.07 -120)"/><rect class="cls-1" x="61.54" y="129.37" width="10.95" height="142.63" rx="5.48"/><path class="cls-1" d="M326.73,161.32c-9.86-6.33-23.31-8.13-35.08-6.76,1.33,9.28.87,21.4-3.49,29.6a24.94,24.94,0,0,1-3.56,14.94c19.54-2.78,37.85-17.63,43.71-32.82a4,4,0,0,0-1.58-5Z" transform="translate(-16.07 -120)"/><path class="cls-1" d="M240.49,174.67a25.36,25.36,0,0,1,15.26-12.81c-16.26-10.18-41.91-10.33-57.1-.54a4.12,4.12,0,0,0-1.62,5c4.29,11.09,14.32,20.48,24.65,26.23C226.1,185.5,232.83,177.94,240.49,174.67Z" transform="translate(-16.07 -120)"/><path class="cls-1" d="M267.33,161.18a25.12,25.12,0,0,1,16.19,10.18c2.81-18.93-5.47-40.3-17.88-50.44a4.14,4.14,0,0,0-5.21,0c-8.17,6.65-13.6,17.12-16.3,27.2,7.66,2,17.59,6.15,23.2,13.06Z" transform="translate(-16.07 -120)"/><path class="cls-1" d="M300.86,203.05c-7.12,3-16.8,5.4-24.46,4.39a25.19,25.19,0,0,1-19.93,3c9.24,19.86,31.66,32.38,45.4,32.38a4.11,4.11,0,0,0,4-3.06c3.06-11.77.33-25.69-5-36.7Z" transform="translate(-16.07 -120)"/><path class="cls-1" d="M246.18,204.82a25.06,25.06,0,0,1-8.38-18.71c-15.62,14-21.77,37.77-17.56,53.6a4.08,4.08,0,0,0,4,3.06c8,0,21.73-4.89,33.17-15.68-5-5.94-10.14-14.5-11.22-22.27Z" transform="translate(-16.07 -120)"/><path class="cls-1" d="M260.86,170.93a16.08,16.08,0,1,0,11.37,27.45L260.86,187Z" transform="translate(-16.07 -120)"/><path class="cls-1" d="M275.14,170.49a16,16,0,0,0-11.37-4.71v16.08Z" transform="translate(-16.07 -120)"/><path class="cls-1" d="M275.9,174.49l-11.37,11.37,11.37,11.36A16.1,16.1,0,0,0,275.9,174.49Z" transform="translate(-16.07 -120)"/><rect class="cls-1" x="242.22" y="129.37" width="10.95" height="142.63" rx="5.48"/><path class="cls-1" d="M507.41,161.55c-9.86-6.33-23.31-8.13-35.08-6.76,1.33,9.28.86,21.4-3.49,29.6a25,25,0,0,1-3.56,14.93c19.53-2.77,37.85-17.62,43.71-32.81a4,4,0,0,0-1.58-5Z" transform="translate(-16.07 -120)"/><path class="cls-1" d="M421.17,174.9a25.36,25.36,0,0,1,15.26-12.81c-16.27-10.18-41.92-10.33-57.1-.54a4.12,4.12,0,0,0-1.62,5C382,177.59,392,187,402.36,192.74,406.78,185.73,413.51,178.17,421.17,174.9Z" transform="translate(-16.07 -120)"/><path class="cls-1" d="M448,161.4a25.2,25.2,0,0,1,16.19,10.19c2.81-18.93-5.47-40.3-17.88-50.44a4.15,4.15,0,0,0-5.22,0c-8.16,6.65-13.6,17.12-16.29,27.2,7.66,2,17.59,6.15,23.2,13.05Z" transform="translate(-16.07 -120)"/><path class="cls-1" d="M481.54,203.28c-7.12,3-16.8,5.4-24.46,4.39a25.2,25.2,0,0,1-19.93,3c9.24,19.86,31.65,32.38,45.4,32.38a4.12,4.12,0,0,0,4-3.06c3.06-11.77.33-25.69-5-36.7Z" transform="translate(-16.07 -120)"/><path class="cls-1" d="M426.86,205a25,25,0,0,1-8.39-18.7c-15.61,14-21.76,37.77-17.55,53.6a4.07,4.07,0,0,0,4,3.06c8,0,21.73-4.89,33.17-15.69-5-5.93-10.14-14.49-11.22-22.27Z" transform="translate(-16.07 -120)"/><path class="cls-1" d="M441.53,171.15a16.09,16.09,0,1,0,11.37,27.46l-11.37-11.37Z" transform="translate(-16.07 -120)"/><path class="cls-1" d="M455.82,170.72A16,16,0,0,0,444.45,166v16.08Z" transform="translate(-16.07 -120)"/><path class="cls-1" d="M456.57,174.72,445.2,186.09l11.37,11.36A16.1,16.1,0,0,0,456.57,174.72Z" transform="translate(-16.07 -120)"/><rect class="cls-1" x="423.65" y="129.14" width="10.95" height="142.63" rx="5.48"/></svg>