<?xml version="1.0" encoding="utf-8"?>
<!-- Generator: Adobe Illustrator 23.0.5, SVG Export Plug-In . SVG Version: 6.00 Build 0)  -->
<svg version="1.1" id="Capa_1" xmlns="http://www.w3.org/2000/svg" xmlns:xlink="http://www.w3.org/1999/xlink" x="0px" y="0px"
	 viewBox="0 0 500 500" style="enable-background:new 0 0 500 500;" xml:space="preserve">
<style type="text/css">
	.st0{fill:#373292;}
	.st1{opacity:0.5;}
	.st2{fill:#FFFFFF;}
	.st3{opacity:0.4;fill:#FFFFFF;enable-background:new    ;}
	.st4{fill:none;stroke:#263238;stroke-linecap:round;stroke-linejoin:round;}
	.st5{clip-path:url(#SVGID_2_);}
	.st6{opacity:0.6;fill:#FFFFFF;stroke:#696969;stroke-linecap:round;stroke-linejoin:round;enable-background:new    ;}
	.st7{fill:none;stroke:#696969;stroke-linecap:round;stroke-linejoin:round;}
	.st8{clip-path:url(#SVGID_4_);}
	.st9{opacity:0.39;fill:#FFFFFF;stroke:#696969;stroke-linecap:round;stroke-linejoin:round;enable-background:new    ;}
	.st10{clip-path:url(#SVGID_6_);}
	.st11{clip-path:url(#SVGID_8_);}
	.st12{clip-path:url(#SVGID_10_);}
	.st13{opacity:0.6;fill:#FFFFFF;stroke:#919191;stroke-linecap:round;stroke-linejoin:round;enable-background:new    ;}
	.st14{fill:none;stroke:#919191;stroke-linecap:round;stroke-linejoin:round;}
	.st15{clip-path:url(#SVGID_12_);}
	.st16{opacity:0.39;fill:#FFFFFF;stroke:#919191;stroke-linecap:round;stroke-linejoin:round;enable-background:new    ;}
	.st17{clip-path:url(#SVGID_14_);}
	.st18{clip-path:url(#SVGID_16_);}
	.st19{clip-path:url(#SVGID_18_);}
	.st20{clip-path:url(#SVGID_20_);}
</style>
<g id="freepik--Plants--inject-194">
	<path class="st0" d="M198.8,95.5c-0.1,0,0.7-3.7,0.8-4c0.9-2.7,4.1-7.3,7.2-7.3c2,0.1,3.7,1.8,3.6,3.8c0,0.1,0,0.3,0,0.4
		c-0.2,2.2-2.2,4.1-4,5.2C204.3,94.9,198.8,95.5,198.8,95.5z"/>
	<path class="st0" d="M192.7,70.4c3,1.1,4.4,6.5,4.3,9.3c0,0.2-0.6,4-0.6,4h-0.1c0.2,0.9,0.5,1.8,0.7,2.8c0.4,1.9,0.9,4,1.3,6.4
		c0.4,2.5,0.7,5.1,0.8,7.6c0.2,2.9,0.1,5.7-0.3,8.6c0,0,0,0.1,0,0.1c0.4-0.8,1.6-3.1,1.6-3.3c1.5-2.3,5.9-6,8.9-5.1
		c2,0.6,3.1,2.7,2.5,4.6c0,0.1-0.1,0.3-0.1,0.4c-0.8,2.1-3.2,3.3-5.2,3.9c-2.3,0.7-7.3-0.1-7.7-0.2c-0.4,2.9-1,5.8-1.9,8.6
		c-0.5,1.6-1,3.3-1.5,4.9c0.3-0.7,0.7-1.3,0.7-1.4c1.5-2.3,5.9-6,8.9-5.1c2,0.6,3.1,2.7,2.5,4.6c0,0.1-0.1,0.3-0.1,0.4
		c-0.8,2.1-3.2,3.3-5.2,3.9c-2,0.6-6.4,0-7.5-0.2l-0.6,1.9c-1,3-2.1,6-3,8.9c-0.3,1-0.6,2.1-0.9,3.1c0.3-0.6,0.6-1.2,0.6-1.2
		c1.5-2.3,5.9-6,8.9-5.1c2,0.6,3.1,2.7,2.5,4.7c0,0.1-0.1,0.2-0.1,0.3c-0.8,2.1-3.2,3.4-5.2,3.9c-2,0.6-5.9,0.1-7.3-0.1
		c-0.3,1.1-0.5,2.1-0.7,3.2c-0.1,0.7-0.3,1.4-0.4,2.1l-0.3,2.1c-0.1,1.4-0.3,2.8-0.4,4.1c-0.1,0.9-0.1,1.8-0.2,2.7
		c0.3-1,1-3.1,1-3.2c1.1-2.2,2.8-4.1,4.8-5.5c0.1-0.3,0.2-0.5,0.4-0.7c1.1-1.7,3.4-2.2,5.1-1.1c0.1,0.1,0.2,0.2,0.3,0.2
		c2.4,2.1,1.8,7.7,0.7,10.3c-0.1,0.1-0.9,1.7-1.5,2.7c0.4-0.5,0.8-1.1,1.3-1.6c0.9-1.1,1.8-2.1,2.7-3.2l1.5-1.6
		c0.5-0.5,1.1-1,1.6-1.6c1.3-1.2,2.6-2.4,3.9-3.5c-0.9-0.8-4.2-3.5-5.1-5.4s-1.6-4.5-0.6-6.5c0.8-1.9,3.1-2.7,4.9-1.8
		c0.1,0.1,0.2,0.1,0.3,0.2c2.6,1.7,2.9,7.3,2.2,10c0,0.2-0.8,2.1-1.2,3.1c0.8-0.7,1.7-1.4,2.5-2c2.5-1.9,5.1-3.8,7.6-5.6l2.3-1.7
		c-0.3-0.3-4.3-3.5-5.4-5.6c-0.9-1.9-1.6-4.5-0.6-6.5c0.8-1.9,3-2.7,4.9-1.9c0.1,0.1,0.2,0.1,0.4,0.2c2.7,1.7,2.9,7.3,2.2,10
		c-0.1,0.2-1.1,2.9-1.4,3.6c1.7-1.3,3.4-2.6,5-3.9c2.2-1.8,4.3-3.7,6.2-5.8c-0.1-0.1-4.3-3.4-5.4-5.6c-0.9-1.9-1.6-4.5-0.6-6.5
		c0.8-1.9,3-2.7,4.9-1.9c0.1,0.1,0.2,0.1,0.4,0.2c2.7,1.7,2.9,7.3,2.2,10c0,0.2-0.8,2.3-1.2,3.2l0.1,0.1c1.9-2.1,3.6-4.4,5.1-6.8
		c0.8-1.3,1.6-2.6,2.2-3.9c-0.8-0.5-4.6-3.1-5.8-4.9s-2.1-4.3-1.3-6.4c0.6-1.9,2.7-3,4.7-2.4c0.1,0,0.3,0.1,0.4,0.1
		c2.8,1.4,3.7,7,3.3,9.7c0,0.2-0.4,1.7-0.7,2.8c0.3-0.6,0.6-1.2,0.9-1.8c1-2.1,1.9-4.2,2.6-6c0.4-1,0.7-1.9,1-2.8
		c-0.6-1-2.7-4.8-2.9-7s0.1-4.8,1.8-6.3c1.5-1.4,3.8-1.4,5.2,0c0.1,0.1,0.2,0.2,0.3,0.3c1.9,2.5,0.1,7.9-1.5,10.2
		c-0.1,0.2-2.7,3-2.7,3v-0.1c-0.3,0.8-0.6,1.8-0.9,2.7c-0.7,1.8-1.4,3.9-2.4,6c-1,2.3-2.2,4.6-3.5,6.8c-1.5,2.5-3.1,4.8-5,7
		l-0.1,0.1c0.8-0.5,3-1.8,3.2-1.8c2.6-1.1,8.2-1.7,10.3,0.6c1.3,1.6,1.1,3.9-0.5,5.2c-0.1,0.1-0.2,0.2-0.3,0.2
		c-1.8,1.3-4.5,1-6.5,0.4c-2.3-0.7-6-4.1-6.3-4.4c-2,2.2-4.1,4.2-6.3,6.1c-1.3,1.1-2.6,2.2-4,3.3c0.7-0.4,1.3-0.8,1.4-0.8
		c2.6-1.1,8.2-1.7,10.3,0.6c1.3,1.6,1.1,3.9-0.5,5.2c-0.1,0.1-0.2,0.2-0.3,0.2c-1.8,1.3-4.5,1-6.5,0.4s-5.3-3.5-6.2-4.3
		c-0.5,0.4-1,0.8-1.6,1.2c-2.5,1.9-5,3.8-7.4,5.8c-0.9,0.7-1.7,1.4-2.5,2.1l1.2-0.7c2.6-1.1,8.2-1.7,10.3,0.6
		c1.3,1.6,1.1,3.9-0.5,5.2c-0.1,0.1-0.2,0.2-0.3,0.2c-1.8,1.3-4.5,1-6.5,0.4s-5-3.2-6-4.1c-0.8,0.8-1.6,1.5-2.4,2.3
		c-0.5,0.5-1,1-1.5,1.6l-1.4,1.6c-0.9,1.1-1.8,2.2-2.6,3.2c-0.6,0.7-1.1,1.4-1.7,2.2c0.8-0.7,2.5-2,2.7-2.1c2.4-1.5,7.8-3,10.2-0.9
		c1.5,1.4,1.7,3.7,0.3,5.2c-0.1,0.1-0.2,0.2-0.3,0.3c-1.6,1.5-4.3,1.7-6.4,1.4c-2.3-0.4-6.4-3-6.9-3.4c-0.9,1.2-1.8,2.3-2.6,3.4
		c-2.8,3.8-4.9,7.1-6.4,9.4l-0.2,0.2l-1.9-0.9l0.3-0.5c1.6-2.3,3.8-5.6,6.7-9.4c0.9-1.2,1.9-2.5,2.9-3.8c-1.1-1.2-2.1-2.4-3-3.7
		c-2.2,0.9-6.8,0.9-7.4,0.9c-0.1,1.5-0.2,2.9-0.2,4.3c-0.2,4.7-0.2,8.7-0.1,11.4v0.3l-2.1-1c0-2.7,0.1-6.4,0.4-10.8
		c0.1-1.5,0.2-3.1,0.4-4.8c-0.6-0.1-5.4-1.4-7.2-2.8c-1.6-1.3-3.4-3.4-3.3-5.6c0-2,1.6-3.7,3.7-3.7c0.1,0,0.3,0,0.4,0
		c3.1,0.4,5.7,5.4,6.2,8.2c0,0.2,0.2,2,0.2,3.1c0.1-0.7,0.1-1.3,0.2-2c0.1-1.4,0.3-2.7,0.5-4.2c0.1-0.7,0.2-1.4,0.3-2.1
		c0.1-0.7,0.3-1.5,0.4-2.2c0.4-1.7,0.8-3.4,1.3-5.1c-1.2-0.1-5.4-0.6-7.3-1.7c-1.8-1.1-3.8-2.9-4.1-5.1c-0.3-2,1-3.9,3.1-4.3
		c0.1,0,0.3,0,0.4,0c3.1-0.1,6.5,4.5,7.4,7.1c0.1,0.2,0.5,2.1,0.7,3.2c0.3-1,0.6-2.1,1-3.1c1-3,2.1-5.9,3.2-8.9
		c0.3-0.9,0.7-1.8,1-2.7c-0.4,0-5.5-0.5-7.5-1.7c-1.8-1-3.8-2.9-4.1-5.1c-0.3-2,1.1-3.9,3.1-4.3c0.1,0,0.3,0,0.4,0
		c3.1-0.1,6.5,4.5,7.4,7.1c0.1,0.2,0.7,3,0.8,3.8c0.7-2,1.4-4,2-6c0.8-2.7,1.5-5.5,2-8.2c-0.2,0-5.5-0.5-7.6-1.7
		c-1.8-1-3.8-2.9-4.1-5.1c-0.3-2,1-3.9,3.1-4.2c0.1,0,0.3,0,0.4,0c3.1-0.1,6.5,4.5,7.4,7.1c0.1,0.2,0.6,2.3,0.8,3.4h0.2
		c0.4-2.8,0.6-5.7,0.5-8.5c0-1.6-0.2-3.1-0.3-4.5c-1,0-5.5,0-7.5-0.9s-4.1-2.4-4.6-4.6c-0.5-2,0.6-4,2.6-4.6c0.1,0,0.3-0.1,0.4-0.1
		c3.1-0.4,6.9,3.8,8.1,6.3c0.1,0.1,0.6,1.6,0.9,2.7c-0.1-0.7-0.1-1.3-0.2-2c-0.3-2.3-0.8-4.5-1.2-6.4c-0.2-1.1-0.5-2-0.7-2.9
		c-1-0.5-4.9-2.6-6.3-4.2c-1.3-1.7-2.5-4.1-2-6.2c0.5-2,2.5-3.2,4.5-2.8C192.5,70.4,192.6,70.4,192.7,70.4z"/>
	<path class="st0" d="M249.4,118.7c-2.4-0.1-7.4-2.6-7.4-2.6s2.6-2.7,2.8-2.9c2.2-1.7,7.4-3.8,10.1-2.1c1.7,1.2,2.1,3.5,0.9,5.2
		c-0.1,0.1-0.2,0.2-0.3,0.3C254.2,118.3,251.5,118.8,249.4,118.7z"/>
	<g class="st1">
		<path class="st2" d="M198.8,95.5c-0.1,0,0.7-3.7,0.8-4c0.9-2.7,4.1-7.3,7.2-7.3c2,0.1,3.7,1.8,3.6,3.8c0,0.1,0,0.3,0,0.4
			c-0.2,2.2-2.2,4.1-4,5.2C204.3,94.9,198.8,95.5,198.8,95.5z"/>
		<path class="st2" d="M192.7,70.4c3,1.1,4.4,6.5,4.3,9.3c0,0.2-0.6,4-0.6,4h-0.1c0.2,0.9,0.5,1.8,0.7,2.8c0.4,1.9,0.9,4,1.3,6.4
			c0.4,2.5,0.7,5.1,0.8,7.6c0.2,2.9,0.1,5.7-0.3,8.6c0,0,0,0.1,0,0.1c0.4-0.8,1.6-3.1,1.6-3.3c1.5-2.3,5.9-6,8.9-5.1
			c2,0.6,3.1,2.7,2.5,4.6c0,0.1-0.1,0.3-0.1,0.4c-0.8,2.1-3.2,3.3-5.2,3.9c-2.3,0.7-7.3-0.1-7.7-0.2c-0.4,2.9-1,5.8-1.9,8.6
			c-0.5,1.6-1,3.3-1.5,4.9c0.3-0.7,0.7-1.3,0.7-1.4c1.5-2.3,5.9-6,8.9-5.1c2,0.6,3.1,2.7,2.5,4.6c0,0.1-0.1,0.3-0.1,0.4
			c-0.8,2.1-3.2,3.3-5.2,3.9c-2,0.6-6.4,0-7.5-0.2l-0.6,1.9c-1,3-2.1,6-3,8.9c-0.3,1-0.6,2.1-0.9,3.1c0.3-0.6,0.6-1.2,0.6-1.2
			c1.5-2.3,5.9-6,8.9-5.1c2,0.6,3.1,2.7,2.5,4.7c0,0.1-0.1,0.2-0.1,0.3c-0.8,2.1-3.2,3.4-5.2,3.9c-2,0.6-5.9,0.1-7.3-0.1
			c-0.3,1.1-0.5,2.1-0.7,3.2c-0.1,0.7-0.3,1.4-0.4,2.1l-0.3,2.1c-0.1,1.4-0.3,2.8-0.4,4.1c-0.1,0.9-0.1,1.8-0.2,2.7
			c0.3-1,1-3.1,1-3.2c1.1-2.2,2.8-4.1,4.8-5.5c0.1-0.3,0.2-0.5,0.4-0.7c1.1-1.7,3.4-2.2,5.1-1.1c0.1,0.1,0.2,0.2,0.3,0.2
			c2.4,2.1,1.8,7.7,0.7,10.3c-0.1,0.1-0.9,1.7-1.5,2.7c0.4-0.5,0.8-1.1,1.3-1.6c0.9-1.1,1.8-2.1,2.7-3.2l1.5-1.6
			c0.5-0.5,1.1-1,1.6-1.6c1.3-1.2,2.6-2.4,3.9-3.5c-0.9-0.8-4.2-3.5-5.1-5.4s-1.6-4.5-0.6-6.5c0.8-1.9,3.1-2.7,4.9-1.8
			c0.1,0.1,0.2,0.1,0.3,0.2c2.6,1.7,2.9,7.3,2.2,10c0,0.2-0.8,2.1-1.2,3.1c0.8-0.7,1.7-1.4,2.5-2c2.5-1.9,5.1-3.8,7.6-5.6l2.3-1.7
			c-0.3-0.3-4.3-3.5-5.4-5.6c-0.9-1.9-1.6-4.5-0.6-6.5c0.8-1.9,3-2.7,4.9-1.9c0.1,0.1,0.2,0.1,0.4,0.2c2.7,1.7,2.9,7.3,2.2,10
			c-0.1,0.2-1.1,2.9-1.4,3.6c1.7-1.3,3.4-2.6,5-3.9c2.2-1.8,4.3-3.7,6.2-5.8c-0.1-0.1-4.3-3.4-5.4-5.6c-0.9-1.9-1.6-4.5-0.6-6.5
			c0.8-1.9,3-2.7,4.9-1.9c0.1,0.1,0.2,0.1,0.4,0.2c2.7,1.7,2.9,7.3,2.2,10c0,0.2-0.8,2.3-1.2,3.2l0.1,0.1c1.9-2.1,3.6-4.4,5.1-6.8
			c0.8-1.3,1.6-2.6,2.2-3.9c-0.8-0.5-4.6-3.1-5.8-4.9s-2.1-4.3-1.3-6.4c0.6-1.9,2.7-3,4.7-2.4c0.1,0,0.3,0.1,0.4,0.1
			c2.8,1.4,3.7,7,3.3,9.7c0,0.2-0.4,1.7-0.7,2.8c0.3-0.6,0.6-1.2,0.9-1.8c1-2.1,1.9-4.2,2.6-6c0.4-1,0.7-1.9,1-2.8
			c-0.6-1-2.7-4.8-2.9-7s0.1-4.8,1.8-6.3c1.5-1.4,3.8-1.4,5.2,0c0.1,0.1,0.2,0.2,0.3,0.3c1.9,2.5,0.1,7.9-1.5,10.2
			c-0.1,0.2-2.7,3-2.7,3v-0.1c-0.3,0.8-0.6,1.8-0.9,2.7c-0.7,1.8-1.4,3.9-2.4,6c-1,2.3-2.2,4.6-3.5,6.8c-1.5,2.5-3.1,4.8-5,7
			l-0.1,0.1c0.8-0.5,3-1.8,3.2-1.8c2.6-1.1,8.2-1.7,10.3,0.6c1.3,1.6,1.1,3.9-0.5,5.2c-0.1,0.1-0.2,0.2-0.3,0.2
			c-1.8,1.3-4.5,1-6.5,0.4c-2.3-0.7-6-4.1-6.3-4.4c-2,2.2-4.1,4.2-6.3,6.1c-1.3,1.1-2.6,2.2-4,3.3c0.7-0.4,1.3-0.8,1.4-0.8
			c2.6-1.1,8.2-1.7,10.3,0.6c1.3,1.6,1.1,3.9-0.5,5.2c-0.1,0.1-0.2,0.2-0.3,0.2c-1.8,1.3-4.5,1-6.5,0.4s-5.3-3.5-6.2-4.3
			c-0.5,0.4-1,0.8-1.6,1.2c-2.5,1.9-5,3.8-7.4,5.8c-0.9,0.7-1.7,1.4-2.5,2.1l1.2-0.7c2.6-1.1,8.2-1.7,10.3,0.6
			c1.3,1.6,1.1,3.9-0.5,5.2c-0.1,0.1-0.2,0.2-0.3,0.2c-1.8,1.3-4.5,1-6.5,0.4s-5-3.2-6-4.1c-0.8,0.8-1.6,1.5-2.4,2.3
			c-0.5,0.5-1,1-1.5,1.6l-1.4,1.6c-0.9,1.1-1.8,2.2-2.6,3.2c-0.6,0.7-1.1,1.4-1.7,2.2c0.8-0.7,2.5-2,2.7-2.1c2.4-1.5,7.8-3,10.2-0.9
			c1.5,1.4,1.7,3.7,0.3,5.2c-0.1,0.1-0.2,0.2-0.3,0.3c-1.6,1.5-4.3,1.7-6.4,1.4c-2.3-0.4-6.4-3-6.9-3.4c-0.9,1.2-1.8,2.3-2.6,3.4
			c-2.8,3.8-4.9,7.1-6.4,9.4l-0.2,0.2l-1.9-0.9l0.3-0.5c1.6-2.3,3.8-5.6,6.7-9.4c0.9-1.2,1.9-2.5,2.9-3.8c-1.1-1.2-2.1-2.4-3-3.7
			c-2.2,0.9-6.8,0.9-7.4,0.9c-0.1,1.5-0.2,2.9-0.2,4.3c-0.2,4.7-0.2,8.7-0.1,11.4v0.3l-2.1-1c0-2.7,0.1-6.4,0.4-10.8
			c0.1-1.5,0.2-3.1,0.4-4.8c-0.6-0.1-5.4-1.4-7.2-2.8c-1.6-1.3-3.4-3.4-3.3-5.6c0-2,1.6-3.7,3.7-3.7c0.1,0,0.3,0,0.4,0
			c3.1,0.4,5.7,5.4,6.2,8.2c0,0.2,0.2,2,0.2,3.1c0.1-0.7,0.1-1.3,0.2-2c0.1-1.4,0.3-2.7,0.5-4.2c0.1-0.7,0.2-1.4,0.3-2.1
			c0.1-0.7,0.3-1.5,0.4-2.2c0.4-1.7,0.8-3.4,1.3-5.1c-1.2-0.1-5.4-0.6-7.3-1.7c-1.8-1.1-3.8-2.9-4.1-5.1c-0.3-2,1-3.9,3.1-4.3
			c0.1,0,0.3,0,0.4,0c3.1-0.1,6.5,4.5,7.4,7.1c0.1,0.2,0.5,2.1,0.7,3.2c0.3-1,0.6-2.1,1-3.1c1-3,2.1-5.9,3.2-8.9
			c0.3-0.9,0.7-1.8,1-2.7c-0.4,0-5.5-0.5-7.5-1.7c-1.8-1-3.8-2.9-4.1-5.1c-0.3-2,1.1-3.9,3.1-4.3c0.1,0,0.3,0,0.4,0
			c3.1-0.1,6.5,4.5,7.4,7.1c0.1,0.2,0.7,3,0.8,3.8c0.7-2,1.4-4,2-6c0.8-2.7,1.5-5.5,2-8.2c-0.2,0-5.5-0.5-7.6-1.7
			c-1.8-1-3.8-2.9-4.1-5.1c-0.3-2,1-3.9,3.1-4.2c0.1,0,0.3,0,0.4,0c3.1-0.1,6.5,4.5,7.4,7.1c0.1,0.2,0.6,2.3,0.8,3.4h0.2
			c0.4-2.8,0.6-5.7,0.5-8.5c0-1.6-0.2-3.1-0.3-4.5c-1,0-5.5,0-7.5-0.9s-4.1-2.4-4.6-4.6c-0.5-2,0.6-4,2.6-4.6c0.1,0,0.3-0.1,0.4-0.1
			c3.1-0.4,6.9,3.8,8.1,6.3c0.1,0.1,0.6,1.6,0.9,2.7c-0.1-0.7-0.1-1.3-0.2-2c-0.3-2.3-0.8-4.5-1.2-6.4c-0.2-1.1-0.5-2-0.7-2.9
			c-1-0.5-4.9-2.6-6.3-4.2c-1.3-1.7-2.5-4.1-2-6.2c0.5-2,2.5-3.2,4.5-2.8C192.5,70.4,192.6,70.4,192.7,70.4z"/>
		<path class="st2" d="M249.4,118.7c-2.4-0.1-7.4-2.6-7.4-2.6s2.6-2.7,2.8-2.9c2.2-1.7,7.4-3.8,10.1-2.1c1.7,1.2,2.1,3.5,0.9,5.2
			c-0.1,0.1-0.2,0.2-0.3,0.3C254.2,118.3,251.5,118.8,249.4,118.7z"/>
	</g>
	<path class="st0" d="M220.8,180.1c0,0-14.9-35.8-23.2-34.3c-8.3,1.6,14.3,57.1,14.3,57.1s-26.2-49.3-44-49.3s6.5,54.5,29.2,72.7
		c0,0-35.7-38.4-56.5-30.1s41.6,47.3,41.6,47.3s-36.3-11.4-32.1-2.6s15.5,10.4,15.5,10.4l9.5,2.1h52l8-3.1c0,0,33.3-16.6,24.4-23.4
		c-8.9-6.8-28.5,7.8-28.5,7.8s33.9-37.4,27.3-51.4c-6.5-14-35.7,25.4-35.7,25.4s23.8-50.4,19-59.2S220.8,180.1,220.8,180.1z"/>
	<path class="st3" d="M220.8,180.1c0,0-14.9-35.8-23.2-34.3c-8.3,1.6,14.3,57.1,14.3,57.1s-26.2-49.3-44-49.3s6.5,54.5,29.2,72.7
		c0,0-35.7-38.4-56.5-30.1s41.6,47.3,41.6,47.3s-36.3-11.4-32.1-2.6s15.5,10.4,15.5,10.4l15.5,2.1h42l12-3.1
		c0,0,33.3-16.6,24.4-23.4c-8.9-6.8-28.5,7.8-28.5,7.8s33.9-37.4,27.3-51.4c-6.5-14-35.7,25.4-35.7,25.4s23.8-50.4,19-59.2
		S220.8,180.1,220.8,180.1z"/>
	<path class="st4" d="M225.6,182c-13.1,38.7-13.1,66-13.1,66s15.5,0.6,31.5-11.3"/>
	<path class="st4" d="M219.1,202.8c-2.7-11.6-6.3-22.9-10.7-33.9"/>
	<path class="st4" d="M180.4,180.2l33.3,49.4c0,0,22.6-19,30.3-29.7"/>
	<path class="st4" d="M213.1,241.4c0,0-35.1-16.6-49.4-26.2"/>
</g>
<g id="freepik--Boxes--inject-194">
	<rect x="145.7" y="305.1" class="st0" width="106" height="89"/>
	<g>
		<defs>
			<rect id="SVGID_1_" x="145.7" y="305.1" width="106" height="89"/>
		</defs>
		<clipPath id="SVGID_2_">
			<use xlink:href="#SVGID_1_"  style="overflow:visible;"/>
		</clipPath>
		<g class="st5">
			<rect x="145.7" y="305.1" class="st6" width="106" height="89"/>
		</g>
	</g>
	<rect x="145.7" y="305.1" class="st7" width="106" height="89"/>
	<rect x="216.4" y="305.1" class="st0" width="35.2" height="89"/>
	<g>
		<defs>
			<rect id="SVGID_3_" x="216.4" y="305.1" width="35.2" height="89"/>
		</defs>
		<clipPath id="SVGID_4_">
			<use xlink:href="#SVGID_3_"  style="overflow:visible;"/>
		</clipPath>
		<g class="st8">
			<rect x="216.4" y="305.1" class="st9" width="35.2" height="89"/>
		</g>
	</g>
	<rect x="216.4" y="305.1" class="st7" width="35.2" height="89"/>
	<line class="st7" x1="234.4" y1="305.4" x2="234.4" y2="394.2"/>
	<rect x="151" y="216.2" class="st0" width="106" height="89"/>
	<g>
		<defs>
			<rect id="SVGID_5_" x="151" y="216.2" width="106" height="89"/>
		</defs>
		<clipPath id="SVGID_6_">
			<use xlink:href="#SVGID_5_"  style="overflow:visible;"/>
		</clipPath>
		<g class="st10">
			<rect x="151" y="216.2" class="st6" width="106" height="89"/>
		</g>
	</g>
	<rect x="151" y="216.2" class="st7" width="106" height="89"/>
	<rect x="221.8" y="216.2" class="st0" width="35.2" height="89"/>
	<g>
		<defs>
			<rect id="SVGID_7_" x="221.8" y="216.2" width="35.2" height="89"/>
		</defs>
		<clipPath id="SVGID_8_">
			<use xlink:href="#SVGID_7_"  style="overflow:visible;"/>
		</clipPath>
		<g class="st11">
			<rect x="221.8" y="216.2" class="st9" width="35.2" height="89"/>
		</g>
	</g>
	<rect x="221.8" y="216.2" class="st7" width="35.2" height="89"/>
	<line class="st7" x1="239.7" y1="216.5" x2="239.7" y2="305.4"/>
	<rect x="341.3" y="307.8" class="st0" width="106" height="89"/>
	<g>
		<defs>
			<rect id="SVGID_9_" x="341.3" y="307.8" width="106" height="89"/>
		</defs>
		<clipPath id="SVGID_10_">
			<use xlink:href="#SVGID_9_"  style="overflow:visible;"/>
		</clipPath>
		<g class="st12">
			<rect x="341.3" y="307.8" class="st13" width="106" height="89"/>
		</g>
	</g>
	<rect x="341.3" y="307.8" class="st14" width="106" height="89"/>
	<rect x="412.1" y="307.8" class="st0" width="35.2" height="89"/>
	<g>
		<defs>
			<rect id="SVGID_11_" x="412.1" y="307.8" width="35.2" height="89"/>
		</defs>
		<clipPath id="SVGID_12_">
			<use xlink:href="#SVGID_11_"  style="overflow:visible;"/>
		</clipPath>
		<g class="st15">
			<rect x="412.1" y="307.8" class="st16" width="35.2" height="89"/>
		</g>
	</g>
	<rect x="412.1" y="307.8" class="st14" width="35.2" height="89"/>
	<line class="st14" x1="430" y1="308" x2="430" y2="396.9"/>
	<rect x="341.3" y="218.7" class="st0" width="106" height="89"/>
	<g>
		<defs>
			<rect id="SVGID_13_" x="341.3" y="218.7" width="106" height="89"/>
		</defs>
		<clipPath id="SVGID_14_">
			<use xlink:href="#SVGID_13_"  style="overflow:visible;"/>
		</clipPath>
		<g class="st17">
			<rect x="341.3" y="218.7" class="st13" width="106" height="89"/>
		</g>
	</g>
	<rect x="341.3" y="218.7" class="st14" width="106" height="89"/>
	<rect x="412.1" y="218.7" class="st0" width="35.2" height="89"/>
	<g>
		<defs>
			<rect id="SVGID_15_" x="412.1" y="218.7" width="35.2" height="89"/>
		</defs>
		<clipPath id="SVGID_16_">
			<use xlink:href="#SVGID_15_"  style="overflow:visible;"/>
		</clipPath>
		<g class="st18">
			<rect x="412.1" y="218.7" class="st16" width="35.2" height="89"/>
		</g>
	</g>
	<rect x="412.1" y="218.7" class="st14" width="35.2" height="89"/>
	<line class="st14" x1="430" y1="218.9" x2="430" y2="307.8"/>
	<rect x="350.3" y="145" class="st0" width="87.6" height="73.6"/>
	<g>
		<defs>
			<rect id="SVGID_17_" x="350.3" y="145" width="87.6" height="73.6"/>
		</defs>
		<clipPath id="SVGID_18_">
			<use xlink:href="#SVGID_17_"  style="overflow:visible;"/>
		</clipPath>
		<g class="st19">
			<rect x="350.3" y="145" class="st13" width="87.6" height="73.6"/>
		</g>
	</g>
	<rect x="350.3" y="145" class="st14" width="87.6" height="73.6"/>
	<rect x="408.9" y="145" class="st0" width="29.1" height="73.6"/>
	<g>
		<defs>
			<rect id="SVGID_19_" x="408.9" y="145" width="29.1" height="73.6"/>
		</defs>
		<clipPath id="SVGID_20_">
			<use xlink:href="#SVGID_19_"  style="overflow:visible;"/>
		</clipPath>
		<g class="st20">
			<rect x="408.9" y="145" class="st16" width="29.1" height="73.6"/>
		</g>
	</g>
	<rect x="408.9" y="145" class="st14" width="29.1" height="73.6"/>
	<line class="st14" x1="423.7" y1="145.2" x2="423.7" y2="218.7"/>
</g>
</svg>
