<svg id="Capa_1" data-name="Capa 1" xmlns="http://www.w3.org/2000/svg" viewBox="0 0 500 500"><defs><style>.cls-1,.cls-2{fill:#fff;}.cls-1{opacity:0;}.cls-3{fill:#365e7d;}.cls-4{fill:#2b4d66;}.cls-5{fill:#e4f6ff;}.cls-6{fill:#d3effb;}.cls-7{fill:#dd636e;}.cls-8{fill:#b1e4f9;}.cls-9{fill:#3f6d8e;}.cls-10{fill:#407093;}.cls-11{fill:#5c90b9;}.cls-12{fill:#4a80aa;}.cls-13{fill:#ffaa5b;}.cls-14{fill:#b3e59f;}.cls-15{fill:#da4a54;}.cls-16{fill:#ff9838;}.cls-17{fill:#95d6a4;}</style></defs><title>grafico</title><rect class="cls-1" width="500" height="500"/><path class="cls-2" d="M236.66,369.44a6.73,6.73,0,0,1-6.73-6.73V349.25a6.73,6.73,0,1,1,13.46,0v13.46A6.73,6.73,0,0,1,236.66,369.44Z"/><path class="cls-3" d="M404.64,72.27H95.36a29.24,29.24,0,0,0-29.21,29.21V320.62a29.41,29.41,0,0,0,24.61,28.85l5.26,4.2H399.44l9.8-4.2a29.41,29.41,0,0,0,24.61-28.85V101.48a29.24,29.24,0,0,0-29.21-29.21Z"/><path class="cls-4" d="M94,320.62V101.48a29.24,29.24,0,0,1,29.21-29.21H95.36a29.24,29.24,0,0,0-29.21,29.21V320.62a29.41,29.41,0,0,0,24.61,28.85l5.26,4.2h27.87l-5.26-4.2A29.41,29.41,0,0,1,94,320.62Z"/><path class="cls-5" d="M404.05,123.87H97.7l-5.31,5.53V318.22a5.25,5.25,0,0,0,5.25,5.24H402.36a5.25,5.25,0,0,0,5.25-5.24V129.4Z"/><path class="cls-6" d="M126.47,318.22V129.4l5.3-5.53H97.7l-5.31,5.53V318.22a5.25,5.25,0,0,0,5.25,5.24h34.07A5.24,5.24,0,0,1,126.47,318.22Z"/><path class="cls-7" d="M126.47,98.32H97.64a5.24,5.24,0,0,0-5.25,5.24V129.4h34.08l2.24-2.39V100Z"/><path class="cls-8" d="M402.36,98.32H126.47V129.4H407.61V103.56A5.24,5.24,0,0,0,402.36,98.32Z"/><path class="cls-9" d="M193.11,166.84h-61.2a5.44,5.44,0,0,0-5.44,5.44V286h72.08V172.28A5.44,5.44,0,0,0,193.11,166.84Z"/><path class="cls-3" d="M150.91,166.84h-19a5.44,5.44,0,0,0-5.44,5.44V286h19V172.28A5.45,5.45,0,0,1,150.91,166.84Z"/><path class="cls-5" d="M174.93,286V263.63a1.88,1.88,0,0,0-1.88-1.88H152a1.88,1.88,0,0,0-1.87,1.88V286Z"/><path class="cls-6" d="M164.38,261.75H152a1.88,1.88,0,0,0-1.87,1.88V286h12.42V263.63A1.88,1.88,0,0,1,164.38,261.75Z"/><path class="cls-10" d="M453.41,349.47H46.59a4.9,4.9,0,0,0-4.88,4.92v16.95a22.81,22.81,0,0,0,22.64,22.85h371.3a22.81,22.81,0,0,0,22.64-22.85V354.39A4.9,4.9,0,0,0,453.41,349.47Z"/><path class="cls-3" d="M92.4,371.34V354.39a4.89,4.89,0,0,1,4.87-4.92H46.59a4.9,4.9,0,0,0-4.88,4.92v16.95a22.81,22.81,0,0,0,22.64,22.85H115A22.8,22.8,0,0,1,92.4,371.34Z"/><path class="cls-11" d="M189.24,349.47v11.36A10.13,10.13,0,0,0,199.3,371H300.7a10.13,10.13,0,0,0,10.06-10.16V349.47Z"/><path class="cls-12" d="M239.92,360.83V349.47H189.24v11.36A10.13,10.13,0,0,0,199.3,371H250a10.14,10.14,0,0,1-10.06-10.16Z"/><path class="cls-7" d="M268.68,286V222.35a1.87,1.87,0,0,0-1.87-1.87H245.72a1.88,1.88,0,0,0-1.88,1.87V286Z"/><path class="cls-13" d="M318.36,286V199.3a1.88,1.88,0,0,0-1.87-1.88H295.4a1.88,1.88,0,0,0-1.88,1.88V286Z"/><path class="cls-14" d="M368.05,286V176.25a1.88,1.88,0,0,0-1.88-1.88H345.08a1.87,1.87,0,0,0-1.87,1.88V286Z"/><path class="cls-15" d="M259.83,220.48H245.72a1.88,1.88,0,0,0-1.88,1.87V286H258V222.35a1.88,1.88,0,0,1,1.88-1.87Z"/><path class="cls-16" d="M309.51,197.42H295.4a1.88,1.88,0,0,0-1.88,1.88V286h14.11V199.3A1.88,1.88,0,0,1,309.51,197.42Z"/><path class="cls-17" d="M359.19,174.37H345.08a1.88,1.88,0,0,0-1.88,1.88V286h14.11V176.25A1.88,1.88,0,0,1,359.19,174.37Z"/><path class="cls-8" d="M374.36,292.31H237.53a6.29,6.29,0,1,1,0-12.58H374.36a6.29,6.29,0,1,1,0,12.58Z"/><path class="cls-14" d="M204.84,292.31H120.39a6.29,6.29,0,0,1,0-12.58h84.45a6.29,6.29,0,1,1,0,12.58Z"/><path class="cls-8" d="M176.48,244.5H148.54a6.29,6.29,0,1,1,0-12.57h27.94a6.29,6.29,0,1,1,0,12.57Z"/><path class="cls-8" d="M176.48,221.45H148.54a6.29,6.29,0,1,1,0-12.57h27.94a6.29,6.29,0,1,1,0,12.57Z"/><path class="cls-8" d="M176.48,198.4H148.54a6.29,6.29,0,1,1,0-12.57h27.94a6.29,6.29,0,1,1,0,12.57Z"/></svg>