<?xml version="1.0" encoding="utf-8"?>
<!-- Generator: Adobe Illustrator 23.0.5, SVG Export Plug-In . SVG Version: 6.00 Build 0)  -->
<svg version="1.1" id="Capa_1" xmlns="http://www.w3.org/2000/svg" xmlns:xlink="http://www.w3.org/1999/xlink" x="0px" y="0px"
	 viewBox="0 0 500 500" style="enable-background:new 0 0 500 500;" xml:space="preserve">
<style type="text/css">
	.st0{fill:url(#SVGID_1_);}
	.st1{opacity:0.7;fill:url(#SVGID_2_);enable-background:new    ;}
	.st2{fill:#209AD9;}
	.st3{fill:url(#SVGID_3_);fill-opacity:0;}
	.st4{fill:#82AFEC;}
	.st5{fill:#588DC6;}
	.st6{fill:#F3F3F3;}
	.st7{fill:#A9DBF5;}
	.st8{fill:#88C3E0;}
	.st9{fill:#43809F;}
	.st10{fill:#7BE492;}
	.st11{fill:#45D987;}
	.st12{fill:#F78E36;}
	.st13{fill:#F86F1B;}
	.st14{fill:#29CEF6;}
	.st15{fill:#22B5ED;}
</style>
<title>informe</title>
<g id="grupo2">
	
		<linearGradient id="SVGID_1_" gradientUnits="userSpaceOnUse" x1="-2.000000e-02" y1="535.054" x2="499.98" y2="535.054" gradientTransform="matrix(1 0 0 1 2.000000e-02 -266)">
		<stop  offset="1.000000e-02" style="stop-color:#DCFDEE"/>
		<stop  offset="0.78" style="stop-color:#CCDDFB"/>
		<stop  offset="1" style="stop-color:#C7D3FF"/>
	</linearGradient>
	<path class="st0" d="M362,459.2c0,0-77.9,38.2-161.9,1S66.7,335.9,24.8,266.4S-4.8,119.9,52.3,78.9s103.4,4.6,188.6-2.6
		c85.2-7.2,106.8-22,182.3,18.4S523,248.2,476,339.2S362,459.2,362,459.2z"/>
	
		<linearGradient id="SVGID_2_" gradientUnits="userSpaceOnUse" x1="-2.000000e-02" y1="535.054" x2="499.98" y2="535.054" gradientTransform="matrix(1 0 0 1 2.000000e-02 -266)">
		<stop  offset="1.000000e-02" style="stop-color:#DCFDEE"/>
		<stop  offset="0.78" style="stop-color:#CCDDFB"/>
		<stop  offset="1" style="stop-color:#C7D3FF"/>
	</linearGradient>
	<path class="st1" d="M362,459.2c0,0-77.9,38.2-161.9,1S66.7,335.9,24.8,266.4S-4.8,119.9,52.3,78.9s103.4,4.6,188.6-2.6
		c85.2-7.2,106.8-22,182.3,18.4S523,248.2,476,339.2S362,459.2,362,459.2z"/>
</g>
<path id="cruz2_1_" class="st2" d="M42.4,55.6"/>
<linearGradient id="SVGID_3_" gradientUnits="userSpaceOnUse" x1="-4.173301e-02" y1="516" x2="499.9583" y2="516" gradientTransform="matrix(1 0 0 1 2.000000e-02 -266)">
	<stop  offset="1.000000e-02" style="stop-color:#DCFDEE"/>
	<stop  offset="0.78" style="stop-color:#CCDDFB"/>
	<stop  offset="1" style="stop-color:#C7D3FF"/>
</linearGradient>
<rect x="0" class="st3" width="500" height="500"/>
<g id="_Informe_">
	<path class="st4" d="M387.7,481.7H112.3c-15.4,0-27.9-12.5-27.9-27.9c0,0,0,0,0,0V74.2c0-15.4,12.5-27.9,27.9-27.9c0,0,0,0,0,0
		h275.4c15.4,0,28,12.5,28,27.9v379.6C415.6,469.2,403.1,481.7,387.7,481.7z"/>
	<path class="st5" d="M387.7,46.2v435.5c15.4,0,27.9-12.5,27.9-28V74.2C415.7,58.8,403.2,46.2,387.7,46.2z"/>
	<path class="st6" d="M112.3,450.2V77.8c0-2,1.6-3.6,3.6-3.6h268.2c2,0,3.6,1.6,3.6,3.6c0,0,0,0,0,0v372.3c0,2-1.6,3.6-3.6,3.6
		c0,0,0,0,0,0H115.9C113.9,453.8,112.3,452.2,112.3,450.2z"/>
	<path class="st7" d="M342.3,46.2H157.7c-3.1,0-5.6-2.5-5.6-5.6l0,0V23.8c0-3.1,2.5-5.6,5.6-5.6l0,0h184.7c3.1,0,5.6,2.5,5.6,5.6
		v16.8C347.9,43.7,345.4,46.2,342.3,46.2z"/>
	<path class="st8" d="M342.3,18.3h-28c3.1,0,5.6,2.5,5.6,5.6v16.8c0,3.1-2.5,5.6-5.6,5.6h28c3.1,0,5.6-2.5,5.6-5.6V23.8
		C347.9,20.8,345.4,18.3,342.3,18.3z"/>
	<path class="st9" d="M321.8,39.4c-3.7,0-6.8,3-6.8,6.8c0,24.1-19.5,43.5-43.6,43.6h-42.9c-24.1,0-43.5-19.5-43.6-43.6
		c0.2-3.7-2.7-6.9-6.5-7.1c-3.7-0.2-6.9,2.7-7.1,6.5c0,0.2,0,0.4,0,0.6c0,31.5,25.6,57.1,57.1,57.2h42.9c31.5,0,57.1-25.6,57.1-57.2
		C328.6,42.5,325.5,39.4,321.8,39.4z"/>
	<path class="st10" d="M222,415.1h-56v-48.5c0-4.1,3.3-7.5,7.5-7.5h41c4.1,0,7.5,3.3,7.5,7.5L222,415.1L222,415.1z"/>
	<path class="st11" d="M214.6,359.1H194v56h28v-48.5C222,362.5,218.7,359.1,214.6,359.1z"/>
	<path class="st12" d="M333.9,415.1h-56v-76.5c0-4.1,3.3-7.5,7.5-7.5h41c4.1,0,7.5,3.3,7.5,7.5V415.1L333.9,415.1z"/>
	<path class="st13" d="M326.5,331.2h-20.5v83.9h28v-76.5C333.9,334.5,330.6,331.2,326.5,331.2z"/>
	<path class="st14" d="M278,415.1h-56V301.3c0-4.1,3.3-7.5,7.5-7.5h41c4.1,0,7.5,3.3,7.5,7.5L278,415.1L278,415.1z"/>
	<path class="st15" d="M270.5,293.8H250v121.2h28V301.3C278,297.2,274.7,293.8,270.5,293.8L270.5,293.8z"/>
	<path class="st9" d="M346.9,408.3H153.1c-3.7,0.2-6.6,3.4-6.5,7.1c0.2,3.5,3,6.3,6.5,6.5h193.7c3.7-0.2,6.6-3.4,6.5-7.1
		C353.2,411.2,350.4,408.4,346.9,408.3z"/>
</g>
<g id="_Tuerca-c_">
	<path class="st4" d="M217,223.2l-5.1-4c0.1-0.8,0.2-1.6,0.2-2.4c0-0.8-0.1-1.6-0.2-2.4l5.1-4c0.5-0.4,0.6-1,0.3-1.5l-4.8-8.3
		c-0.3-0.5-0.9-0.7-1.5-0.5l-6,2.4c-1.2-1-2.6-1.8-4.1-2.4l-0.9-6.4c-0.1-0.6-0.6-1-1.2-1h-9.6c-0.6,0-1.1,0.4-1.2,1l-0.9,6.4
		c-1.5,0.6-2.8,1.4-4.1,2.4l-6-2.4c-0.6-0.2-1.2,0-1.5,0.5l-4.8,8.3c-0.3,0.5-0.2,1.2,0.3,1.5l5.1,4c-0.1,0.8-0.2,1.6-0.2,2.4
		c0,0.8,0.1,1.6,0.2,2.4l-5.1,4c-0.5,0.4-0.6,1-0.3,1.5l4.8,8.3c0.3,0.5,0.9,0.7,1.5,0.5l6-2.4c1.2,1,2.6,1.8,4.1,2.4l0.9,6.4
		c0.1,0.6,0.6,1,1.2,1h9.6c0.6,0,1.1-0.4,1.2-1l0.9-6.4c1.5-0.6,2.8-1.4,4.1-2.4l6,2.4c0.6,0.2,1.2,0,1.5-0.5l4.8-8.3
		C217.6,224.3,217.5,223.6,217,223.2z M194,225.3c-4.7,0-8.4-3.8-8.4-8.4s3.8-8.4,8.4-8.4s8.4,3.8,8.4,8.4c0,0,0,0,0,0
		C202.4,221.6,198.7,225.3,194,225.3L194,225.3z"/>
</g>
<g id="_Tuerca-g_">
	<path class="st4" d="M335.1,211l-7.2-5.7c0.3-2.2,0.3-4.5,0-6.7l7.3-5.7c0.7-0.5,0.8-1.5,0.4-2.2l-6.9-11.9c-0.4-0.7-1.3-1-2.1-0.7
		l-8.5,3.5c-1.8-1.4-3.7-2.5-5.8-3.4l-1.3-9.1c-0.2-0.8-0.9-1.4-1.7-1.4h-13.7c-0.8,0-1.6,0.6-1.7,1.4l-1.3,9.1
		c-2.1,0.9-4,2-5.8,3.4l-8.5-3.5c-0.8-0.3-1.7,0-2.1,0.7l-6.9,11.9c-0.4,0.7-0.2,1.7,0.4,2.2l7.2,5.7c-0.3,2.2-0.3,4.5,0,6.7
		l-7.2,5.7c-0.7,0.5-0.8,1.5-0.4,2.2l6.9,11.9c0.4,0.7,1.3,1,2.1,0.7l8.5-3.4c1.8,1.4,3.7,2.5,5.8,3.4l1.3,9.1
		c0.1,0.8,0.9,1.4,1.7,1.4h13.7c0.8,0,1.6-0.6,1.7-1.4l1.3-9.1c2.1-0.9,4-2,5.8-3.4l8.5,3.4c0.8,0.3,1.7,0,2.1-0.7l6.9-11.9
		C335.9,212.5,335.8,211.6,335.1,211z M302.3,214c-6.6,0-12-5.4-12-12s5.4-12,12-12s12,5.4,12,12C314.3,208.7,309,214,302.3,214
		L302.3,214z"/>
</g>
</svg>
