<svg id="Capa_1" data-name="Capa 1" xmlns="http://www.w3.org/2000/svg" viewBox="0 0 512 504"><defs><style>.cls-1{fill:#fff;}</style></defs><title>jerarquia</title><path class="cls-1" d="M439.34,348V314.59a12.1,12.1,0,0,0-12.09-12.08H266v-30.4c70.51-3.9,126.68-62.49,126.68-134C392.7,64.19,332.51,4,258.52,4A134.1,134.1,0,0,0,143.83,68.47a7.5,7.5,0,0,0,12.81,7.8,119.17,119.17,0,1,1,184.17,148c-3-24.72-22.46-32.51-39.33-37.3L292,184.39c-1.19-.32-2.23-2-3.06-3.76,17.78-12.3,31-33.11,31-51.29V112.85c0-20.55-6.57-38-19-50.48a60.54,60.54,0,0,0-42.2-17.71h-.24a60.57,60.57,0,0,0-42.22,17.71c-12.45,12.47-19,29.93-19,50.48v16.49c0,18.18,13.18,39,31,51.29-.83,1.77-1.88,3.44-3.09,3.77L215.55,187c-16.87,4.8-36.33,12.58-39.34,37.29A119.32,119.32,0,0,1,143.44,107,7.5,7.5,0,1,0,129,103.1a134.85,134.85,0,0,0-4.61,35.06c0,71.46,56.16,130,126.67,134v30.4H84.75a12.1,12.1,0,0,0-12.09,12.08V348a80.17,80.17,0,1,0,15,0V317.51H251v30.54A79.39,79.39,0,0,0,211,363.3a7.5,7.5,0,0,0,8.9,12.07,65.14,65.14,0,0,1,90.52,91.84,54.71,54.71,0,0,0-20.76-28.37,38.17,38.17,0,1,0-62.21,0,54.66,54.66,0,0,0-20.77,28.38A65.19,65.19,0,0,1,200,399a7.5,7.5,0,0,0-13.45-6.65A80.18,80.18,0,1,0,266,348.05V317.51H424.34V348a80.16,80.16,0,1,0,15,0ZM80.16,492.94A64.79,64.79,0,0,1,41,479.81a39.48,39.48,0,0,1,19.4-30.44,38.15,38.15,0,0,0,39.55,0,39.52,39.52,0,0,1,19.42,30.43,64.82,64.82,0,0,1-39.19,13.13ZM57,416.74A23.17,23.17,0,1,1,80.16,439.9,23.19,23.19,0,0,1,57,416.74Zm88.33,11.08A64.76,64.76,0,0,1,132,467.17a54.71,54.71,0,0,0-20.77-28.36,38.16,38.16,0,1,0-62.22,0,54.75,54.75,0,0,0-20.77,28.37,65.14,65.14,0,1,1,117.05-39.35Zm113.19-34.21a23.16,23.16,0,1,1-23.17,23.16,23.2,23.2,0,0,1,23.17-23.16Zm0,99.39a64.83,64.83,0,0,1-39.19-13.14,39.52,39.52,0,0,1,19.41-30.47,38.09,38.09,0,0,0,39.55,0,39.52,39.52,0,0,1,19.39,30.47A64.75,64.75,0,0,1,258.52,493Zm0-433.34c20.24.37,41.83,14.19,45.72,43.53a24.58,24.58,0,0,1-6.05-5c-4.1-4.18-9.71-9.91-21.31-6.93-2.7.7-5,1.32-7,1.86-6,1.62-9,2.43-11.34,2.43s-5.32-.8-11.27-2.4c-2-.55-4.38-1.18-7.14-1.89-11.58-3-17.19,2.75-21.29,6.93a24.58,24.58,0,0,1-6,5C216.66,73.85,238.27,60,258.52,59.66Zm-46.37,69.68v-10c9.2-2.22,14-7.11,17.38-10.56s3.65-3.73,6.83-2.91c2.7.7,5,1.32,7,1.86,7,1.87,10.85,2.91,15.16,2.91s8.18-1,15.23-2.94c2-.53,4.25-1.14,6.88-1.82,3.2-.83,3.47-.55,6.85,2.9s8.18,8.34,17.38,10.56v10c0,16.56-16.91,37.9-35.48,44.78-8,3-13.72,3-21.75,0-18.57-6.88-35.48-28.22-35.48-44.78Zm69.65,66.35L262,207.31l-.28.18c-3.2,2.07-3.26,2.06-6.45,0l-.28-.18-19.79-11.62a23.54,23.54,0,0,0,6.12-7.94c.36.15.72.3,1.08.43a42.17,42.17,0,0,0,32.18,0c.37-.13.73-.28,1.1-.43a23.29,23.29,0,0,0,6.11,7.94Zm-91,35.4c0-18,9.69-23.88,26-28.83l30.5,17.91c4,2.59,7.63,3.89,11.23,3.89s7.2-1.3,11.24-3.89l30.5-17.91c16.29,5,26,10.86,26,28.83v5.09a118.93,118.93,0,0,1-135.43,0v-5.07ZM431.84,492.94a64.84,64.84,0,0,1-39.17-13.12,39.51,39.51,0,0,1,19.4-30.44,38.15,38.15,0,0,0,39.55,0A39.52,39.52,0,0,1,471,479.81a64.84,64.84,0,0,1-39.19,13.13Zm-23.17-76.2a23.17,23.17,0,1,1,23.17,23.16A23.19,23.19,0,0,1,408.67,416.74Zm75,50.43A54.67,54.67,0,0,0,463,438.8a38.16,38.16,0,1,0-62.22,0A54.66,54.66,0,0,0,380,467.17a65.16,65.16,0,1,1,103.73,0Z" transform="translate(0 -4)"/></svg>