<svg id="Capa_1" data-name="Capa 1" xmlns="http://www.w3.org/2000/svg" viewBox="0 0 363.98 512"><defs><style>.cls-1{fill:#5858a5;}.cls-2{fill:#f5f5f5;}.cls-3{fill:#eaeaea;}.cls-4{fill:#c2d0da;}.cls-5{fill:#6864b9;}.cls-6{fill:#f6f9f9;}.cls-7{fill:#ddeafb;}</style></defs><title>lista</title><path class="cls-1" d="M337,493.09V61A18.92,18.92,0,0,0,318.1,42.12H54A18.92,18.92,0,0,0,35,61V493.09A18.91,18.91,0,0,0,54,512H318.1A18.91,18.91,0,0,0,337,493.09Z" transform="translate(-35.04)"/><path class="cls-1" d="M380.11,42.12h-63.3A18.92,18.92,0,0,1,335.72,61V493.09A18.91,18.91,0,0,1,316.81,512h63.3A18.91,18.91,0,0,0,399,493.09V61A18.92,18.92,0,0,0,380.11,42.12Z" transform="translate(-35.04)"/><path class="cls-2" d="M66,474.33V79.8A6.75,6.75,0,0,1,72.72,73H361.35a6.76,6.76,0,0,1,6.76,6.76V474.33a6.76,6.76,0,0,1-6.76,6.76H72.71A6.75,6.75,0,0,1,66,474.33Z" transform="translate(-35.04)"/><path class="cls-3" d="M361.35,73h-63.3a6.76,6.76,0,0,1,6.76,6.76V474.33a6.76,6.76,0,0,1-6.76,6.76h63.3a6.76,6.76,0,0,0,6.76-6.76V79.8A6.76,6.76,0,0,0,361.35,73Z" transform="translate(-35.04)"/><path class="cls-4" d="M257.21,23.54v-10A13.58,13.58,0,0,0,243.63,0h-53.2a13.58,13.58,0,0,0-13.58,13.58v10a5.56,5.56,0,0,1-5.55,5.55H149.16a13.34,13.34,0,0,0-13.34,13.34V73H298.24V42.43A13.34,13.34,0,0,0,284.9,29.09H262.76a5.55,5.55,0,0,1-5.55-5.55Z" transform="translate(-35.04)"/><path class="cls-5" d="M105.28,182.79V123.25a12,12,0,0,1,11.94-11.94h59.54a11.94,11.94,0,0,1,11.94,11.94v59.54a11.94,11.94,0,0,1-11.94,12H117.22A12,12,0,0,1,105.28,182.79Z" transform="translate(-35.04)"/><path class="cls-5" d="M105.28,306.83V247.29a12,12,0,0,1,11.94-11.94h59.54a11.94,11.94,0,0,1,11.94,11.94v59.54a11.94,11.94,0,0,1-11.94,11.95H117.22A12,12,0,0,1,105.28,306.83Z" transform="translate(-35.04)"/><path class="cls-5" d="M105.28,430.87V371.33a12,12,0,0,1,11.94-11.94h59.54a11.94,11.94,0,0,1,11.94,11.94v59.54a11.94,11.94,0,0,1-11.94,11.95H117.22A12,12,0,0,1,105.28,430.87Z" transform="translate(-35.04)"/><path class="cls-6" d="M142,174.34h0a10.77,10.77,0,0,1-8.66-4.41l-9-12.39a7.73,7.73,0,1,1,12.49-9.1l5.23,7.19,15.3-20.78A7.72,7.72,0,1,1,169.71,144L150.6,170A10.78,10.78,0,0,1,142,174.34Z" transform="translate(-35.04)"/><path class="cls-6" d="M142,301.08h0a10.77,10.77,0,0,1-8.65-4.42l-9-12.38a7.73,7.73,0,1,1,12.49-9.1l5.23,7.18,15.3-20.78a7.72,7.72,0,1,1,12.44,9.16l-19.11,26a10.78,10.78,0,0,1-8.65,4.37Z" transform="translate(-35.04)"/><path class="cls-6" d="M142,422.42h0a10.76,10.76,0,0,1-8.65-4.41l-9-12.39a7.73,7.73,0,1,1,12.49-9.1l5.23,7.19,15.3-20.78a7.72,7.72,0,1,1,12.44,9.16l-19.11,26a10.78,10.78,0,0,1-8.65,4.37Z" transform="translate(-35.04)"/><path class="cls-7" d="M322.69,144.6H227.18a7.73,7.73,0,1,1,0-15.45h95.51a7.73,7.73,0,1,1,0,15.45Z" transform="translate(-35.04)"/><path class="cls-7" d="M274.93,176.89H227.18a7.73,7.73,0,1,1,0-15.45h47.75a7.73,7.73,0,1,1,0,15.45Z" transform="translate(-35.04)"/><path class="cls-7" d="M291.26,268.64H227.18a7.73,7.73,0,1,1,0-15.45h64.08a7.73,7.73,0,1,1,0,15.45Z" transform="translate(-35.04)"/><path class="cls-7" d="M274.93,300.93H227.18a7.73,7.73,0,1,1,0-15.45h47.75a7.73,7.73,0,1,1,0,15.45Z" transform="translate(-35.04)"/></svg>