<?xml version="1.0" encoding="utf-8"?>
<!-- Generator: Adobe Illustrator 23.0.5, SVG Export Plug-In . SVG Version: 6.00 Build 0)  -->
<svg version="1.1" id="Layer_1" xmlns="http://www.w3.org/2000/svg" xmlns:xlink="http://www.w3.org/1999/xlink" x="0px" y="0px"
	 viewBox="0 0 512 512" style="enable-background:new 0 0 512 512;" xml:space="preserve">
<style type="text/css">
	.st0{fill:#FFFFFF;}
	.st1{fill:none;}
	.st2{font-family:'BebasKai';}
	.st3{font-size:150px;}
</style>
<g>
	<path class="st0" d="M434,115.1c-27.4-17.6-64.8-22.6-97.5-18.8c3.7,25.8,2.4,59.5-9.7,82.3c1.1,14.6-2.3,29-9.9,41.5
		c54.3-7.7,105.2-49,121.5-91.2C440.5,123.8,438.6,118,434,115.1L434,115.1z"/>
	<path class="st0" d="M194.3,152.2c8.6-17,23.9-30,42.4-35.6C191.5,88.3,120.2,87.9,78,115.1c-4.6,3-6.5,8.7-4.5,13.8
		c11.9,30.8,39.8,56.9,68.5,72.9C154.3,182.3,173,161.3,194.3,152.2z"/>
	<path class="st0" d="M268.9,114.7c18.5,3.2,34.5,13.6,45,28.3c7.8-52.6-15.2-112-49.7-140.2c-4.2-3.4-10.3-3.4-14.5,0
		c-22.7,18.5-37.8,47.6-45.3,75.6C225.7,83.9,253.3,95.5,268.9,114.7L268.9,114.7z"/>
	<path class="st0" d="M362.1,231.1c-19.8,8.3-46.7,15-68,12.2c-17.1,10.7-37.2,13.2-55.4,8.3c25.7,55.2,88,90,126.2,90
		c5.2,0,9.8-3.5,11.1-8.5C384.5,300.4,376.9,261.7,362.1,231.1L362.1,231.1z"/>
	<path class="st0" d="M210.1,236c-14.3-12.8-23.3-31.4-23.3-52c-43.4,38.8-60.5,105-48.8,149c1.3,5.1,5.9,8.5,11.1,8.5
		c22.3,0,60.4-13.6,92.2-43.6C227.4,281.4,213.1,257.6,210.1,236L210.1,236z"/>
	<path class="st0" d="M250.9,141.8c-24.7,0-44.7,20-44.7,44.7s20,44.7,44.7,44.7c11.8,0,23.2-4.7,31.6-13.1l-31.6-31.6V141.8z"/>
	<path class="st0" d="M290.6,140.6c-8.4-8.4-19.7-13.1-31.6-13.1v44.7L290.6,140.6z"/>
	<path class="st0" d="M292.7,151.7l-31.6,31.6l31.6,31.6C310.1,197.4,310.1,169.1,292.7,151.7z"/>
</g>
<rect x="80.9" y="405.9" class="st1" width="597.3" height="202.1"/>
<text transform="matrix(1 0 0 1 80.8878 510.8596)" class="st0 st2 st3">JAZMÍN</text>
</svg>
