<svg id="Layer_1" data-name="Layer 1" xmlns="http://www.w3.org/2000/svg" viewBox="0 0 508 473.08"><defs><style>.cls-1{fill:#82afec;}</style></defs><title>logo-azul</title><path class="cls-1" d="M502.72,178.63c-38-24.39-89.81-31.32-135.13-26,5.13,35.75,3.33,82.46-13.44,114.06a96.32,96.32,0,0,1-13.72,57.51c75.26-10.67,145.8-67.91,168.39-126.39a15.58,15.58,0,0,0-6.1-19.13Z" transform="translate(-2 -19.46)"/><path class="cls-1" d="M170.52,230.05a97.69,97.69,0,0,1,58.76-49.34c-62.65-39.22-161.46-39.78-219.95-2.08A15.85,15.85,0,0,0,3.1,197.76c16.49,42.68,55.16,78.86,94.93,101C115.08,271.76,141,242.66,170.52,230.05Z" transform="translate(-2 -19.46)"/><path class="cls-1" d="M273.91,178.08a96.91,96.91,0,0,1,62.36,39.22C347.08,144.4,315.21,62.07,267.39,23a16,16,0,0,0-20.09,0c-31.46,25.64-52.39,66-62.79,104.78,29.52,7.62,67.77,23.7,89.4,50.31Z" transform="translate(-2 -19.46)"/><path class="cls-1" d="M403.07,339.4c-27.44,11.5-64.72,20.79-94.24,16.91a97,97,0,0,1-76.78,11.5c35.62,76.5,122,124.73,174.9,124.73a15.89,15.89,0,0,0,15.39-11.78c11.78-45.32,1.24-98.95-19.27-141.36Z" transform="translate(-2 -19.46)"/><path class="cls-1" d="M192.41,346.19a96.56,96.56,0,0,1-32.29-72.07C100,327.89,76.27,419.64,92.49,480.62a15.72,15.72,0,0,0,15.38,11.78c30.91,0,83.71-18.84,127.78-60.42-19.26-22.87-39.08-55.86-43.24-85.79Z" transform="translate(-2 -19.46)"/><path class="cls-1" d="M249,215.63a62,62,0,1,0,43.79,105.75L249,277.59Z" transform="translate(-2 -19.46)"/><path class="cls-1" d="M304,214a61.77,61.77,0,0,0-43.8-18.15v61.95Z" transform="translate(-2 -19.46)"/><path class="cls-1" d="M306.89,229.36,263.1,273.15,306.89,317A62.06,62.06,0,0,0,306.89,229.36Z" transform="translate(-2 -19.46)"/></svg>