<?xml version="1.0" encoding="utf-8"?>
<!-- Generator: Adobe Illustrator 23.0.5, SVG Export Plug-In . SVG Version: 6.00 Build 0)  -->
<svg version="1.1" id="Capa_1" xmlns="http://www.w3.org/2000/svg" xmlns:xlink="http://www.w3.org/1999/xlink" x="0px" y="0px"
	 viewBox="0 0 512 512" style="enable-background:new 0 0 512 512;" xml:space="preserve">
<style type="text/css">
	.st0{fill:#FFFFFF;}
</style>
<g>
	<path class="st0" d="M505.9,242.7c-27.3-36.4-73.8-61-118.5-72c-7.7,35.5-25.8,79.1-52.7,103.1c-5.7,19.6-17.2,36.8-33.1,49.5
		c74.8,16.3,161.5-13.1,203.4-60.4C510.1,257.3,510.4,248.8,505.9,242.7L505.9,242.7z"/>
	<path class="st0" d="M173.9,175c19.5-18.1,45.9-27.7,72.9-26C201.3,89.9,108.1,54.7,39.6,69.8C32.2,71.4,26.9,78,27,85.7
		c0.7,46.1,24.5,93.8,54.3,128.7C106.9,194.9,141.6,176.4,173.9,175z"/>
	<path class="st0" d="M289.8,162.1c22.6,13.1,38.5,34.6,45.2,58.9c35.8-65,34.5-154.1,3-207.7c-3.9-6.6-11.8-9.5-19-7
		c-38.6,13.2-72.6,43.9-96.1,77C248.1,100.7,278.7,129.4,289.8,162.1L289.8,162.1z"/>
	<path class="st0" d="M355.3,359.7c-29.9,1.3-68.5-3-94.9-17.1c-27.6,5.7-55.2-0.9-76.6-16.1c6.8,84.8,71.5,160.6,121.5,179.1
		c6.8,2.5,14.5,0.2,18.7-5.8C351,461.4,359.8,407.1,355.3,359.7L355.3,359.7z"/>
	<path class="st0" d="M153.9,292.4c-12.5-23.7-15.2-52.4-5.3-79.5C72.9,242.7,18.4,321,12.3,384.3c-0.7,7.3,3.6,14.1,10.4,16.6
		c29.2,10.8,85.7,11.5,141.9-12.3C154.5,360.2,147.3,322,153.9,292.4L153.9,292.4z"/>
</g>
<g>
	<path class="st0" d="M239.7,190.6c-34.4,0-62.3,27.9-62.3,62.3s27.9,62.3,62.3,62.3c16.5,0,32.4-6.6,44.1-18.2l-44.1-44.1V190.6z"
		/>
	<path class="st0" d="M295.1,189c-11.7-11.7-27.5-18.3-44.1-18.2v62.3L295.1,189z"/>
	<path class="st0" d="M297.9,204.4l-44.1,44.1l44.1,44.1C322.2,268.2,322.2,228.8,297.9,204.4z"/>
</g>
</svg>
