<svg id="Layer_1" data-name="Layer 1" xmlns="http://www.w3.org/2000/svg" viewBox="0 0 485.19 471.92"><defs><style>.cls-1{fill:#6864b9;}</style></defs><title>logo</title><g id="Page-1"><path class="cls-1" d="M197.62,161.16a96.82,96.82,0,0,1,78.16-17.76c.43.09.85.24,1.26.33,6.94-20.21,14.66-50.84,7.41-72.65a6.85,6.85,0,0,0-.38-1,9.9,9.9,0,0,1-.44-.93c-7-17.19-30.85-38.78-55.25-52.64a8.75,8.75,0,0,1-1.81-1C208.41,5.55,190.12-.09,178.5,3.82,152.6,12.38,127.65,80.69,132.12,114,157.13,120.53,180.61,141.77,197.62,161.16Z" transform="translate(-13.53 -2.57)"/><path class="cls-1" d="M302.05,68.86c7,24.64.22,55.69-8.18,80.19a97.38,97.38,0,0,1,54.84,60.3c21-4.21,51.38-13,66.64-30.09,0-.09,1.18-1.37,1.27-1.46C436.26,152.57,442,73,420.63,53.9c-20.41-18.2-91.9-5.61-118.58,15Z" transform="translate(-13.53 -2.57)"/><path class="cls-1" d="M314.63,315.89a96.83,96.83,0,0,1-78.16,17.76c-.44-.09-.86-.24-1.27-.33-6.93,20.21-14.66,50.84-7.41,72.65l.37,1a9,9,0,0,1,.45.94c7,17.19,30.94,38.85,55.42,52.68a10.12,10.12,0,0,1,1.45.78c18.23,10.08,36.58,15.78,48.3,11.92,25.88-8.56,50.84-76.86,46.36-110.21-25-6.54-48.5-27.78-65.51-47.17Z" transform="translate(-13.53 -2.57)"/><path class="cls-1" d="M480.73,241.9a8.36,8.36,0,0,1-.79-1.15,147.51,147.51,0,0,0-54-47.29c-17.69,18.2-48,28-73.5,33.14A96,96,0,0,1,327.72,304c21,24,41.86,39.15,59.25,42.74.58.13,1.15.24,1.84.33,31.84,4.5,103.55-30.27,109.46-58.42,2.48-12.13-5.36-29.75-17.54-46.72Z" transform="translate(-13.53 -2.57)"/><path class="cls-1" d="M159.8,250.45a96.06,96.06,0,0,1,24.71-77.37c-21-24-41.84-39.15-59.23-42.74-.6-.13-1.15-.24-1.85-.33C91.59,125.51,19.88,160.28,14,188.43,8.49,215,55.1,270.68,86.23,283.61,103.91,265.41,134.3,255.58,159.8,250.45Z" transform="translate(-13.53 -2.57)"/><path class="cls-1" d="M210.22,408.29c-6.95-24.88-.23-55.86,8.15-80.29a97.4,97.4,0,0,1-54.84-60.3c-21,4.21-51.38,13-66.63,30.09a15.11,15.11,0,0,1-1.22,1.55l0,.08c-19.72,25.13-25.52,104.59-4,123.77,20.33,18.08,91.84,5.58,118.61-14.9Z" transform="translate(-13.53 -2.57)"/></g><polygon class="cls-1" points="242.6 167.54 183.35 201.75 183.35 270.17 242.6 304.37 301.85 270.17 301.85 201.75 242.6 167.54"/></svg>