<svg id="Layer_1" data-name="Layer 1" xmlns="http://www.w3.org/2000/svg" viewBox="0 0 430.13 471.92"><defs><style>.cls-1{fill:#fff;}</style></defs><title>logo-blanco</title><path class="cls-1" d="M447.47,300.49A80.92,80.92,0,0,0,386,248.21l-57.31-10.6a86.2,86.2,0,0,1-30.4,63.93l44.41,37.84a80.91,80.91,0,0,0,79.37,14.56l26.35-9.38a13.86,13.86,0,0,0,8.43-17.69v0Z" transform="translate(-27.53)"/><path class="cls-1" d="M201,160.55a86,86,0,0,1,70.54-5.68l10.59-57.36a80.89,80.89,0,0,0-27.08-76L233.74,3.34a13.83,13.83,0,0,0-19.51,1.48l0,0L196,26.15a81,81,0,0,0-14.56,79.37Z" transform="translate(-27.53)"/><path class="cls-1" d="M287.07,162.26a86.11,86.11,0,0,1,40.23,58.21l54.91-19.54a80.92,80.92,0,0,0,52.3-61.44L439.56,112a13.85,13.85,0,0,0-11.14-16.13l-27.52-5a80.87,80.87,0,0,0-76,27.06Z" transform="translate(-27.53)"/><path class="cls-1" d="M37.66,171.43a80.92,80.92,0,0,0,61.46,52.28l57.31,10.52a86.2,86.2,0,0,1,30.41-63.91l-44.42-37.84A80.91,80.91,0,0,0,63.06,118l-26.3,9.4A13.84,13.84,0,0,0,28.33,145v0Z" transform="translate(-27.53)"/><path class="cls-1" d="M198.05,309.68a86.07,86.07,0,0,1-40.19-58.23L102.92,271a80.92,80.92,0,0,0-52.3,61.44l-5,27.54A13.86,13.86,0,0,0,56.71,376.1l27.53,5a80.9,80.9,0,0,0,76-27.05Z" transform="translate(-27.53)"/><path class="cls-1" d="M284.15,311.41a86.07,86.07,0,0,1-70.56,5.67L203,374.41a80.94,80.94,0,0,0,27.06,76l21.33,18.17a13.83,13.83,0,0,0,19.51-1.48l0,0,18.17-21.29a81,81,0,0,0,14.57-79.37Z" transform="translate(-27.53)"/><path class="cls-1" d="M196.62,280.62a65.11,65.11,0,1,0-11.52-16.25l-48.92,34.82,11.59,16.26,48.93-34.91Zm2-52.7a44.91,44.91,0,1,1,36.9,51.7h0A45,45,0,0,1,198.64,227.92Z" transform="translate(-27.53)"/></svg>