<svg id="Layer_1" data-name="Layer 1" xmlns="http://www.w3.org/2000/svg" viewBox="0 0 430.1 471.93"><defs><style>.cls-1{fill:#9da4d6;}</style></defs><title>logo-lirio-azul</title><path class="cls-1" d="M419.94,300.49a80.92,80.92,0,0,0-61.47-52.28l-57.31-10.6a86.18,86.18,0,0,1-30.4,63.93l44.41,37.84a80.91,80.91,0,0,0,79.37,14.56l26.35-9.38a13.87,13.87,0,0,0,8.43-17.69h0Z" transform="translate(-0.02 0)"/><path class="cls-1" d="M173.47,160.55A86,86,0,0,1,244,154.87L254.6,97.51a80.89,80.89,0,0,0-27.08-76L206.21,3.34a13.83,13.83,0,0,0-19.5,1.47h0L168.47,26.15a81,81,0,0,0-14.56,79.37Z" transform="translate(-0.02 0)"/><path class="cls-1" d="M259.54,162.26a86.11,86.11,0,0,1,40.23,58.21l54.91-19.54A80.92,80.92,0,0,0,407,139.49L412,112a13.86,13.86,0,0,0-11.12-16.13h0l-27.52-5a80.88,80.88,0,0,0-76,27.06Z" transform="translate(-0.02 0)"/><path class="cls-1" d="M10.13,171.43a80.92,80.92,0,0,0,61.46,52.28l57.31,10.52a86.2,86.2,0,0,1,30.41-63.91l-44.42-37.84A80.9,80.9,0,0,0,35.53,118l-26.3,9.4A13.84,13.84,0,0,0,.8,145h0Z" transform="translate(-0.02 0)"/><path class="cls-1" d="M170.52,309.68a86.08,86.08,0,0,1-40.19-58.23L75.39,271a80.92,80.92,0,0,0-52.3,61.44l-5,27.54A13.86,13.86,0,0,0,29.18,376.1l27.53,5a80.89,80.89,0,0,0,76-27.05Z" transform="translate(-0.02 0)"/><path class="cls-1" d="M256.62,311.41a86.07,86.07,0,0,1-70.56,5.67l-10.59,57.33a80.94,80.94,0,0,0,27.06,76l21.33,18.17a13.83,13.83,0,0,0,19.5-1.47h0l18.17-21.29a81,81,0,0,0,14.57-79.37Z" transform="translate(-0.02 0)"/><path class="cls-1" d="M169.09,280.62a65.11,65.11,0,1,0-11.52-16.25l-48.92,34.82,11.59,16.26,48.93-34.91Zm2-52.7a44.91,44.91,0,1,1,36.9,51.7h0a45,45,0,0,1-36.88-51.7Z" transform="translate(-0.02 0)"/></svg>