<svg id="Capa_1" data-name="Capa 1" xmlns="http://www.w3.org/2000/svg" viewBox="0 0 512 512"><defs><style>.cls-1{fill:#ecf0f1;}.cls-2{fill:#82afec;}.cls-3{fill:#e64c3c;}.cls-4{fill:#f0c419;}.cls-5{fill:#24ae5f;}.cls-6{fill:#bdc3c7;}.cls-7{fill:#fff;}</style></defs><title>navegador</title><path class="cls-1" d="M483.31,512H28.69A28.68,28.68,0,0,1,0,483.31V105.93H512V483.31A28.68,28.68,0,0,1,483.31,512Z"/><path class="cls-2" d="M512,105.93H0V28.69A28.68,28.68,0,0,1,28.69,0H483.31A28.68,28.68,0,0,1,512,28.69Z"/><rect class="cls-3" x="35.31" y="35.31" width="35.31" height="35.31"/><rect class="cls-4" x="105.93" y="35.31" width="35.31" height="35.31"/><rect class="cls-5" x="176.55" y="35.31" width="35.31" height="35.31"/><path class="cls-2" d="M317.79,480.83H194.21a17.65,17.65,0,0,1-17.66-17.66h0a17.65,17.65,0,0,1,17.66-17.65H317.79a17.65,17.65,0,0,1,17.66,17.65h0A17.65,17.65,0,0,1,317.79,480.83Z"/><path class="cls-6" d="M344.28,374.9H167.72a8.83,8.83,0,0,1,0-17.66H344.28a8.83,8.83,0,0,1,0,17.66Z"/><path class="cls-6" d="M388.41,419H123.59a8.83,8.83,0,1,1,0-17.65H388.41a8.83,8.83,0,1,1,0,17.65Z"/><rect class="cls-2" x="123.59" y="143.03" width="264.83" height="158.9" rx="20.19"/><path class="cls-7" d="M310.18,205.49c-8.34-5.35-19.72-6.87-29.68-5.72,1.13,7.85.74,18.11-2.95,25a21.14,21.14,0,0,1-3,12.63c16.52-2.35,32-14.91,37-27.76a3.42,3.42,0,0,0-1.34-4.2Z"/><path class="cls-7" d="M237.23,216.78A21.45,21.45,0,0,1,250.13,206c-13.75-8.61-35.45-8.73-48.3-.46a3.48,3.48,0,0,0-1.36,4.2c3.62,9.38,12.11,17.32,20.84,22.19C225.06,225.94,230.75,219.55,237.23,216.78Z"/><path class="cls-7" d="M259.93,205.37a21.34,21.34,0,0,1,13.7,8.61C276,198,269,179.9,258.5,171.32a3.51,3.51,0,0,0-4.41,0c-6.91,5.63-11.51,14.48-13.79,23,6.48,1.68,14.88,5.21,19.63,11.05Z"/><path class="cls-7" d="M288.3,240.8c-6,2.52-14.22,4.56-20.7,3.71A21.29,21.29,0,0,1,250.74,247c7.82,16.8,26.78,27.39,38.41,27.39a3.49,3.49,0,0,0,3.38-2.58c2.58-9.95.27-21.73-4.23-31Z"/><path class="cls-7" d="M242,242.29A21.23,21.23,0,0,1,235,226.46c-13.21,11.81-18.42,32-14.86,45.35a3.46,3.46,0,0,0,3.38,2.58c6.79,0,18.38-4.13,28.06-13.26-4.23-5-8.58-12.27-9.49-18.84Z"/><path class="cls-7" d="M254.45,213.62a13.61,13.61,0,1,0,9.62,23.22l-9.62-9.62Z"/><path class="cls-7" d="M266.54,213.25a13.6,13.6,0,0,0-9.62-4v13.6Z"/><path class="cls-7" d="M267.17,216.63l-9.61,9.62,9.61,9.62A13.63,13.63,0,0,0,267.17,216.63Z"/></svg>