<svg id="Capa_1" data-name="Capa 1" xmlns="http://www.w3.org/2000/svg" viewBox="0 0 500 500"><defs><style>.cls-1{fill:#fff;opacity:0;}.cls-2{fill:#b2705b;}.cls-3{fill:#ea9c62;}.cls-4{fill:#cdebf7;}.cls-5{fill:#fcfcfc;}.cls-6{fill:#a8e2ef;}.cls-7{fill:#e1ebf0;}.cls-8{fill:#7b7bec;}.cls-9{fill:#82afec;}</style></defs><title>papel</title><rect class="cls-1" width="500" height="500"/><path class="cls-2" d="M438,72.45H388L247.76,89.12l16.67,383.6H438Z"/><path class="cls-3" d="M140.89,72.45h-50V472.72H264.43V89.12Z"/><path class="cls-4" d="M413,97.46H264.43l-16.67,220,16.67,130.22H413Z"/><path class="cls-5" d="M115.88,97.46H264.43V447.71H115.88Z"/><path class="cls-6" d="M388,72.45H310.44a53.09,53.09,0,0,0-46-26.57L247.76,97.46l16.67,25H388Z"/><path class="cls-7" d="M218.43,72.45H140.89v50H264.43V45.88A53.08,53.08,0,0,0,218.43,72.45Z"/><path class="cls-8" d="M370,182.93v-25H264.43l-8.33,12.51,8.33,12.5Z"/><path class="cls-8" d="M370,255.8v-25H264.43l-8.33,12.5,8.33,12.51Z"/><path class="cls-9" d="M158.84,157.92H264.43v25H158.84Z"/><path class="cls-9" d="M158.84,230.79H264.43v25H158.84Z"/><path class="cls-9" d="M320.6,334.76c-8.65-5.56-20.45-7.13-30.76-5.93,1.16,8.14.75,18.77-3.06,26a22,22,0,0,1-3.13,13.1c17.14-2.43,33.19-15.46,38.34-28.78a3.54,3.54,0,0,0-1.39-4.35Z"/><path class="cls-9" d="M245,346.46a22.28,22.28,0,0,1,13.38-11.23c-14.26-8.93-36.76-9.05-50.07-.47a3.6,3.6,0,0,0-1.42,4.35c3.75,9.72,12.56,17.95,21.61,23C232.35,356,238.25,349.33,245,346.46Z"/><path class="cls-9" d="M268.51,334.63a22.07,22.07,0,0,1,14.2,8.93c2.46-16.6-4.8-35.34-15.68-44.23a3.64,3.64,0,0,0-4.58,0c-7.16,5.83-11.93,15-14.29,23.85,6.72,1.73,15.43,5.39,20.35,11.45Z"/><path class="cls-9" d="M297.91,371.36c-6.24,2.61-14.73,4.73-21.45,3.85A22.1,22.1,0,0,1,259,377.82c8.11,17.42,27.77,28.4,39.82,28.4a3.61,3.61,0,0,0,3.5-2.68c2.68-10.32.28-22.53-4.39-32.18Z"/><path class="cls-9" d="M250,372.9a22,22,0,0,1-7.35-16.4c-13.7,12.24-19.09,33.12-15.4,47a3.58,3.58,0,0,0,3.5,2.68c7,0,19.06-4.29,29.09-13.76-4.38-5.2-8.9-12.71-9.84-19.53Z"/><path class="cls-9" d="M262.83,343.18a14.11,14.11,0,1,0,10,24.07l-10-10Z"/><path class="cls-9" d="M275.36,342.8a14.08,14.08,0,0,0-10-4.13v14.1Z"/><path class="cls-9" d="M276,346.3l-10,10,10,10A14.13,14.13,0,0,0,276,346.3Z"/></svg>