<svg id="Capa_1" data-name="Capa 1" xmlns="http://www.w3.org/2000/svg" xmlns:xlink="http://www.w3.org/1999/xlink" viewBox="0 0 500 500"><defs><style>.cls-1,.cls-2{fill:url(#Degradado_sin_nombre_2);}.cls-2{opacity:0.7;isolation:isolate;}.cls-3{fill:#209ad9;}.cls-4{fill:#66dcff;}.cls-5{fill:none;stroke:#596675;stroke-miterlimit:10;stroke-width:30px;}.cls-6{fill:#596675;}.cls-7{fill:#82afec;}.cls-8{fill:#eaeaea;}.cls-9{fill:#fff;}.cls-10{opacity:0;fill:url(#Degradado_sin_nombre_2-3);}</style><linearGradient id="Degradado_sin_nombre_2" x1="14.92" y1="263.25" x2="471.08" y2="263.25" gradientUnits="userSpaceOnUse"><stop offset="0.01" stop-color="#dcfdee"/><stop offset="0.78" stop-color="#ccddfb"/><stop offset="1" stop-color="#c7d3ff"/></linearGradient><linearGradient id="Degradado_sin_nombre_2-3" x1="0" y1="250" x2="500" y2="250" xlink:href="#Degradado_sin_nombre_2"/></defs><title>regadora</title><g id="grupo2"><path class="cls-1" d="M345.18,436.75s-71.06,34.82-147.73.9S75.75,324.24,37.58,260.79s-27-133.63,25.06-171S157,94,234.73,87.46,332.2,67.37,401,104.27s91.05,140,48.15,222.94S345.18,436.75,345.18,436.75Z"/><path class="cls-2" d="M345.18,436.75s-71.06,34.82-147.73.9S75.75,324.24,37.58,260.79s-27-133.63,25.06-171S157,94,234.73,87.46,332.2,67.37,401,104.27s91.05,140,48.15,222.94S345.18,436.75,345.18,436.75Z"/></g><path id="cruz2" class="cls-3" d="M49,41H46.38V38.37a4,4,0,0,0-8,0V41H35.75a4,4,0,0,0,0,8h2.63v2.61a4,4,0,0,0,8,0V49H49a4,4,0,1,0,0-8Z"/><path id="circulo1" class="cls-4" d="M471.07,253.12a11.71,11.71,0,1,1,8.28-3.42A11.71,11.71,0,0,1,471.07,253.12Zm0-15.4a3.69,3.69,0,1,0,2.61,1.08,3.69,3.69,0,0,0-2.61-1.08Z"/><path id="cruz1" class="cls-3" d="M382.22,462.87h-2.61v-2.58a4,4,0,0,0-8,0v2.61H369a4,4,0,0,0,0,8h2.61v2.6a4,4,0,0,0,8,0v-2.6h2.61a4,4,0,0,0,0-8Z"/><g id="grupo1"><circle class="cls-5" cx="120.35" cy="172.45" r="80.78"/><rect class="cls-6" x="190.76" y="168.24" width="24.78" height="265.67" rx="9.75" transform="translate(-103.14 496.28) rotate(-88.5)"/><path class="cls-6" d="M303.25,208.36l83.55-61L373,122l-77.77,28.77Z"/><path class="cls-7" d="M314.79,291.59,92.14,285.78,123,125.18l52.14,1.36L208.6,92.13l78.83,2.07Z"/><path class="cls-8" d="M380.5,107.45,387,103.9h0l22.54,41.52h0L403,149a13.52,13.52,0,0,1-18.31-5.42h0l-9.66-17.77a13.5,13.5,0,0,1,5.41-18.31h0Z"/><g id="hojas"><path class="cls-9" d="M278.51,182.79c-9.65-6.4-22.91-8.34-34.54-7.14,1.18,9.17.57,21.15-3.84,29.2a24.8,24.8,0,0,1-3.69,14.68c19.33-2.48,37.61-16.93,43.61-31.84a4.06,4.06,0,0,0-1.54-4.93Z"/><path class="cls-9" d="M193.17,194.86a25,25,0,0,1,15.26-12.46c-15.92-10.28-41.28-10.78-56.41-1.32a4.1,4.1,0,0,0-1.66,4.89c4.1,11,13.87,20.4,24,26.23C178.82,205.36,185.56,198,193.17,194.86Z"/><path class="cls-9" d="M219.86,181.87a24.94,24.94,0,0,1,15.85,10.26c3-18.64-4.87-39.87-17-50.06a4.1,4.1,0,0,0-5.16-.07c-8.14,6.46-13.65,16.73-16.47,26.64,7.55,2.08,17.35,6.33,22.77,13.22Z"/><path class="cls-9" d="M252.4,223.66c-7.07,2.86-16.66,5.14-24.21,4a24.92,24.92,0,0,1-19.71,2.66c8.85,19.74,30.84,32.41,44.4,32.6a4.07,4.07,0,0,0,4-3C260.06,248.42,257.54,234.64,252.4,223.66Z"/><path class="cls-9" d="M198.38,224.7a24.88,24.88,0,0,1-8-18.6c-15.61,13.6-22,37-18.06,52.73a4.07,4.07,0,0,0,3.89,3.06c7.92.11,21.53-4.55,33-15.06-4.83-6-9.78-14.49-10.75-22.16Z"/></g><g id="grafico"><path id="grande" class="cls-9" d="M213.09,190.81a17.07,17.07,0,1,0,11.68,29.29l-11.9-12.22Z"/><path id="chico" class="cls-9" d="M228.26,190.56a17,17,0,0,0-12-5.17L216,202.45Z"/><path id="mediano" class="cls-9" d="M229,194.79l-12.23,11.9,11.91,12.23A17.06,17.06,0,0,0,229,194.8Z"/></g></g><path id="circulo1-2" data-name="circulo1" class="cls-4" d="M438.59,311.36a11.71,11.71,0,1,1,8.28-3.42A11.71,11.71,0,0,1,438.59,311.36Zm0-15.4A3.69,3.69,0,1,0,441.2,297a3.69,3.69,0,0,0-2.61-1.08Z"/><path id="circulo1-3" data-name="circulo1" class="cls-4" d="M399.31,273.92a11.71,11.71,0,1,1,8.28-3.42A11.7,11.7,0,0,1,399.31,273.92Zm0-15.4a3.69,3.69,0,1,0,2.61,1.08,3.69,3.69,0,0,0-2.61-1.08Z"/><path id="circulo1-4" data-name="circulo1" class="cls-4" d="M399.31,206.76a11.71,11.71,0,1,1,8.28-3.42A11.7,11.7,0,0,1,399.31,206.76Zm0-15.4a3.69,3.69,0,1,0,2.61,1.08,3.69,3.69,0,0,0-2.61-1.08Z"/><path id="circulo1-5" data-name="circulo1" class="cls-4" d="M434.89,241.41a11.71,11.71,0,1,1,8.28-3.42A11.72,11.72,0,0,1,434.89,241.41Zm0-15.4a3.69,3.69,0,1,0,3.69,3.69,3.64,3.64,0,0,0-3.69-3.66Z"/><path id="circulo1-6" data-name="circulo1" class="cls-4" d="M450.3,182.53a11.71,11.71,0,1,1,8.28-3.42A11.71,11.71,0,0,1,450.3,182.53Zm0-15.4a3.69,3.69,0,1,0,2.61,1.08,3.7,3.7,0,0,0-2.61-1.08Z"/><rect class="cls-10" width="500" height="500"/></svg>