<svg id="Capa_1" data-name="Capa 1" xmlns="http://www.w3.org/2000/svg" viewBox="0 0 500 500"><defs><style>.cls-1,.cls-2{fill:#fff;}.cls-1{opacity:0;}.cls-3{fill:#dfeef4;}.cls-4{fill:#f45858;}.cls-5{fill:#6d7a84;}.cls-6{fill:#3ea2e5;}.cls-7{fill:#ffe14d;}.cls-8{fill:#fb3;}.cls-9{fill:#e68a2e;}</style></defs><title>remuneraciones</title><rect class="cls-1" width="500" height="500"/><path class="cls-2" d="M236.66,369.44a6.73,6.73,0,0,1-6.73-6.73V349.25a6.73,6.73,0,1,1,13.46,0v13.46A6.73,6.73,0,0,1,236.66,369.44Z"/><path class="cls-3" d="M85.56,166.43h336V382.77a23.39,23.39,0,0,1-23.38,23.39H109a23.39,23.39,0,0,1-23.39-23.39Z"/><path class="cls-4" d="M105.37,97.93H401.73a19.81,19.81,0,0,1,19.81,19.81v48.69h-336V117.74A19.81,19.81,0,0,1,105.37,97.93Z"/><path class="cls-5" d="M253.55,70.17h0A10.87,10.87,0,0,1,264.42,81v33.77a10.87,10.87,0,0,1-10.87,10.87h0a10.87,10.87,0,0,1-10.86-10.87V81A10.87,10.87,0,0,1,253.55,70.17Z"/><path class="cls-5" d="M340.27,70.17h0A10.87,10.87,0,0,1,351.14,81v33.77a10.87,10.87,0,0,1-10.87,10.87h0a10.87,10.87,0,0,1-10.86-10.87V81A10.87,10.87,0,0,1,340.27,70.17Z"/><path class="cls-5" d="M166.83,70.17h0A10.87,10.87,0,0,1,177.69,81v33.77a10.87,10.87,0,0,1-10.86,10.87h0A10.87,10.87,0,0,1,156,114.81V81A10.87,10.87,0,0,1,166.83,70.17Z"/><circle class="cls-6" cx="147.74" cy="217.92" r="18.29"/><circle class="cls-6" cx="218.28" cy="217.92" r="18.29"/><circle class="cls-6" cx="288.82" cy="217.92" r="18.29"/><circle class="cls-6" cx="359.36" cy="217.92" r="18.29"/><circle class="cls-6" cx="147.74" cy="286.29" r="18.29"/><circle class="cls-6" cx="218.28" cy="286.29" r="18.29"/><circle class="cls-6" cx="288.82" cy="286.29" r="18.29"/><circle class="cls-6" cx="359.36" cy="286.29" r="18.29"/><circle class="cls-6" cx="147.74" cy="354.66" r="18.29"/><circle class="cls-6" cx="218.28" cy="354.66" r="18.29"/><circle class="cls-6" cx="288.82" cy="354.66" r="18.29"/><circle class="cls-6" cx="359.36" cy="354.66" r="18.29"/><path class="cls-7" d="M375.9,411.81a55.38,55.38,0,1,1,55.38-55.38,55.39,55.39,0,0,1-55.38,55.38"/><path class="cls-8" d="M375.9,411.81a55.38,55.38,0,0,0,0-110.76V411.81"/><path class="cls-8" d="M375.9,398.61a42.18,42.18,0,1,1,42.18-42.18A42.23,42.23,0,0,1,375.9,398.61Z"/><path class="cls-9" d="M418.08,356.43a42.23,42.23,0,0,0-42.18-42.18v84.36A42.23,42.23,0,0,0,418.08,356.43Z"/><g id="Cent"><path class="cls-7" d="M379.14,353.42V340.59c3.74.91,6.49,3.31,6.49,6.07a3.25,3.25,0,1,0,6.49,0c0-6.27-5.58-11.51-13-12.71v-3.51a3.25,3.25,0,0,0-6.49,0V334c-7.39,1.2-13,6.44-13,12.71s5.58,11.51,13,12.72v12.83c-3.73-.92-6.48-3.32-6.48-6.08a3.25,3.25,0,0,0-6.49,0c0,6.27,5.58,11.51,13,12.72v3.54a3.25,3.25,0,0,0,6.49,0v-3.54c7.4-1.21,13-6.45,13-12.72s-5.58-11.51-13-12.71Zm-13-6.76c0-2.76,2.75-5.16,6.48-6.07v12.15C368.92,351.82,366.17,349.42,366.17,346.66Zm13,25.55V360.06c3.74.91,6.49,3.31,6.49,6.07s-2.75,5.16-6.49,6.08Z"/></g><path class="cls-8" d="M379.14,382.39v-3.54c7.4-1.21,13-6.45,13-12.72s-5.58-11.51-13-12.71V340.59c3.74.91,6.49,3.31,6.49,6.07a3.25,3.25,0,1,0,6.49,0c0-6.27-5.58-11.51-13-12.71v-3.51a3.24,3.24,0,0,0-3.24-3.24v58.43A3.24,3.24,0,0,0,379.14,382.39Zm0-22.34c3.74.92,6.49,3.32,6.49,6.08s-2.75,5.16-6.49,6.08Z"/></svg>