<svg id="Capa_1" data-name="Capa 1" xmlns="http://www.w3.org/2000/svg" viewBox="0 0 511.99 511.99"><defs><style>.cls-1{fill:#ffc107;}</style></defs><title>ventas</title><path class="cls-1" d="M458.66,0H323.34a95.42,95.42,0,0,0-67.91,28.12L18.19,265.39a62.16,62.16,0,0,0,0,87.87L158.71,493.8a62.16,62.16,0,0,0,87.87,0L483.87,256.53A96.65,96.65,0,0,0,512,188.65V53.33A53.33,53.33,0,0,0,458.66,0Zm-64,170.67A53.34,53.34,0,1,1,448,117.33,53.34,53.34,0,0,1,394.66,170.67Z" transform="translate(0 0)"/></svg>